G04 ================== begin FILE IDENTIFICATION RECORD ==================*
G04 Layout Name:  C:/CADENCE/CADS/allegro/KWTRAFFICSIGNAL.brd*
G04 Film Name:    BOTTOM*
G04 File Format:  Gerber RS274X*
G04 File Origin:  Cadence Allegro 17.2-S038*
G04 Origin Date:  Wed Sep 22 19:56:57 2021*
G04 *
G04 Layer:  VIA CLASS/BOTTOM*
G04 Layer:  PIN/BOTTOM*
G04 Layer:  ETCH/BOTTOM*
G04 *
G04 Offset:    (0.0000 0.0000)*
G04 Mirror:    No*
G04 Mode:      Positive*
G04 Rotation:  0*
G04 FullContactRelief:  No*
G04 UndefLineWidth:     0.2000*
G04 ================== end FILE IDENTIFICATION RECORD ====================*
%FSLAX35Y35*MOMM*%
%IR0*IPPOS*OFA0.00000B0.00000*MIA0B0*SFA1.00000B1.00000*%
%ADD14C,.6*%
%ADD13C,.8*%
%ADD10C,.635*%
%ADD18C,1.13*%
%ADD12C,1.5*%
%ADD22C,1.35*%
%ADD20C,1.143*%
%ADD19R,1.13X1.13*%
%ADD15C,1.524*%
%ADD11C,1.651*%
%ADD17C,1.905*%
%ADD21C,1.493*%
%ADD16R,1.905X1.905*%
%ADD23C,.3*%
%ADD24C,.5*%
%ADD27C,2.1304*%
%ADD26C,2.5004*%
%ADD30C,2.3504*%
%ADD28C,2.1434*%
%ADD25R,5.0804X5.0804*%
%ADD29C,2.4934*%
G75*
%LPD*%
G75*
G36*
G01X200010Y9799990D02*
X9799990D01*
Y200010D01*
X200010D01*
Y9799990D01*
G37*
%LPC*%
G75*
G36*
G01X5481480Y4007500D02*
Y4120500D01*
G02X5531500Y4170520I50020J0D01*
G01X5644500D01*
G02X5694520Y4120500I0J-50020D01*
G01Y4007500D01*
G02X5644500Y3957480I-50020J0D01*
G01X5531500D01*
G02X5481480Y4007500I0J50020D01*
G37*
G36*
G01X3195480D02*
Y4120500D01*
G02X3245500Y4170520I50020J0D01*
G01X3358500D01*
G02X3408520Y4120500I0J-50020D01*
G01Y4007500D01*
G02X3358500Y3957480I-50020J0D01*
G01X3245500D01*
G02X3195480Y4007500I0J50020D01*
G37*
G36*
G01X655480Y8325500D02*
Y8438500D01*
G02X705500Y8488520I50020J0D01*
G01X818500D01*
G02X868520Y8438500I0J-50020D01*
G01Y8325500D01*
G02X818500Y8275480I-50020J0D01*
G01X705500D01*
G02X655480Y8325500I0J50020D01*
G37*
G36*
G01X2939480Y743350D02*
Y1140350D01*
G02X3029520I45020J66150D01*
G01Y780650D01*
X3096520Y713650D01*
X3099070Y714050D01*
G02X3032450Y647430I12430J-79050D01*
G01X3032850Y649980D01*
X2939480Y743350D01*
G37*
G36*
G01X3212690Y1154500D02*
X2869000Y1498190D01*
X2866600Y1497940D01*
G02X2947060Y1578400I-9100J89560D01*
G01X2946810Y1576000D01*
X3290500Y1232310D01*
X3292900Y1232560D01*
G02X3212440Y1152100I9100J-89560D01*
G01X3212690Y1154500D01*
G37*
G36*
G01X903960Y3161150D02*
G03X920150Y3157160I9484J3642D01*
G02X1134700Y3131750I95851J-109160D01*
G03X1151300I8300J5857D01*
G02Y2964250I118700J-83750D01*
G03X1134700I-8300J-5857D01*
G02X920150Y2938840I-118699J83750D01*
G03X903960Y2934850I-6706J-7632D01*
G02X857250Y2902730I-46710J17904D01*
G01X666750D01*
G02X616730Y2952750I0J50020D01*
G01Y3143250D01*
G02X666750Y3193270I50020J0D01*
G01X857250D01*
G02X903960Y3161150I0J-50024D01*
G37*
G36*
G01X5796980Y4463650D02*
X6080850Y4747520D01*
X6080450Y4750070D01*
G02X6147070Y4683450I79050J12430D01*
G01X6144520Y4683850D01*
X5898770Y4438100D01*
X5901930Y4434520D01*
G02X5796980Y4447650I-59930J-53022D01*
G01Y4463650D01*
G37*
G36*
G01X2808980Y4777650D02*
X2905850Y4874520D01*
X2905450Y4877070D01*
G02X2972070Y4810450I79050J12430D01*
G01X2969520Y4810850D01*
X2872650Y4713980D01*
X2873050Y4711430D01*
G02X2806430Y4778050I-79050J-12430D01*
G01X2808980Y4777650D01*
G37*
G36*
G01X638000Y4880460D02*
G03Y4898540I-4637J9040D01*
G02X759000I60500J117960D01*
G03Y4880460I4637J-9040D01*
G02X638000I-60500J-117960D01*
G37*
G36*
G01X8336980Y4781150D02*
X8620850Y5065020D01*
X8620450Y5067570D01*
G02X8687070Y5000950I79050J12430D01*
G01X8684520Y5001350D01*
X8427020Y4743850D01*
Y3537350D01*
X7295770Y2406100D01*
X7298930Y2402520D01*
G02X7193980Y2415650I-59930J-53022D01*
G01Y2431650D01*
X8336980Y3574650D01*
Y4781150D01*
G37*
G36*
G01X7828980Y5463650D02*
Y5775850D01*
G02X7919020I45020J66150D01*
G01Y5463650D01*
G02X7828980I-45020J-66150D01*
G37*
G36*
G01X1796480Y6140850D02*
Y6347350D01*
G02X1886520I45020J66150D01*
G01Y6178150D01*
X2144020Y5920650D01*
X2146570Y5921050D01*
G02X2079950Y5854430I12430J-79050D01*
G01X2080350Y5856980D01*
X1796480Y6140850D01*
G37*
G36*
G01X2939480Y6098650D02*
Y6347350D01*
G02X3029520I45020J66150D01*
G01Y6098650D01*
G02X2939480I-45020J-66150D01*
G37*
G36*
G01X5019500Y7229960D02*
G03Y7248040I-4637J9040D01*
G02X5140500I60500J117960D01*
G03Y7229960I4637J-9040D01*
G02X5019500I-60500J-117960D01*
G37*
G36*
G01X462980Y7347350D02*
Y7617350D01*
G02X553020I45020J66150D01*
G01Y7384650D01*
X937520Y7000150D01*
X940070Y7000550D01*
G02X873450Y6933930I12430J-79050D01*
G01X873850Y6936480D01*
X462980Y7347350D01*
G37*
G36*
G01X9438710Y5977480D02*
X7631500Y7784690D01*
X7629100Y7784440D01*
G02X7709560Y7864900I-9100J89560D01*
G01X7709310Y7862500D01*
X9484290Y6087520D01*
X9517250D01*
G02Y5977480I71250J-55020D01*
G01X9438710D01*
G37*
G36*
G01X4653980Y7829150D02*
X4810850Y7986020D01*
X4810450Y7988570D01*
G02X4877070Y7921950I79050J12430D01*
G01X4874520Y7922350D01*
X4744020Y7791850D01*
Y7749650D01*
G02X4653980I-45020J-66150D01*
G01Y7829150D01*
G37*
G36*
G01X4145980Y7622650D02*
Y8125350D01*
G02X4236020I45020J66150D01*
G01Y7622650D01*
G02X4145980I-45020J-66150D01*
G37*
G36*
G01X7795350Y8142980D02*
X7634980Y8303350D01*
X7632430Y8302950D01*
G02X7699050Y8369570I-12430J79050D01*
G01X7698650Y8367020D01*
X7859020Y8206650D01*
X7861570Y8207050D01*
G02X7794950Y8140430I12430J-79050D01*
G01X7795350Y8142980D01*
G37*
G36*
G01X2394350Y7855520D02*
X3159850Y8621020D01*
X3159450Y8623570D01*
G02X3226070Y8556950I79050J12430D01*
G01X3223520Y8557350D01*
X2431650Y7765480D01*
X2034650D01*
G02Y7855520I-66150J45020D01*
G01X2394350D01*
G37*
G36*
G01X7066980Y7537850D02*
Y8569850D01*
G02X7157020I45020J66150D01*
G01Y7575150D01*
X7160520Y7571650D01*
X7163070Y7572050D01*
G02X7096450Y7505430I12430J-79050D01*
G01X7096850Y7507980D01*
X7066980Y7537850D01*
G37*
G36*
G01X2902350Y7665020D02*
X4112350Y8875020D01*
X4111950Y8877570D01*
G02X4178570Y8810950I79050J12430D01*
G01X4176020Y8811350D01*
X2939650Y7574980D01*
X2034650D01*
G02Y7665020I-66150J45020D01*
G01X2902350D01*
G37*
G36*
G01X4511500Y9007960D02*
G03Y9026040I-4637J9040D01*
G02X4632500I60500J117960D01*
G03Y9007960I4637J-9040D01*
G02X4511500I-60500J-117960D01*
G37*
G36*
G01X8644480Y9248210D02*
X8584000Y9308690D01*
X8581600Y9308440D01*
G02X8662060Y9388900I-9100J89560D01*
G01X8661810Y9386500D01*
X8754520Y9293790D01*
Y8168710D01*
X8658790Y8072980D01*
X8486210D01*
X8203000Y8356190D01*
X8200600Y8355940D01*
G02X8281060Y8436400I-9100J89560D01*
G01X8280810Y8434000D01*
X8531790Y8183020D01*
X8613210D01*
X8644480Y8214290D01*
Y9248210D01*
G37*
G36*
G01X5382350Y9383020D02*
X5381950Y9385570D01*
G02X5448570Y9318950I79050J12430D01*
G01X5446020Y9319350D01*
X4998020Y8871350D01*
Y8527650D01*
X5113510Y8412150D01*
G03X5130420Y8422280I7186J7183D01*
G02X5273150Y8490520I76577J23218D01*
G01X5352650D01*
X5370450Y8472710D01*
G03X5387030Y8476020I7186J7185D01*
G02X5415980Y8511650I73968J-30524D01*
G01Y8908650D01*
X5445850Y8938520D01*
X5445450Y8941070D01*
G02X5512070Y8874450I79050J12430D01*
G01X5509520Y8874850D01*
X5506020Y8871350D01*
Y8750700D01*
G03X5518770Y8740870I10161J-5D01*
G02X5531500Y8742520I12741J-48369D01*
G01X5644500D01*
G02X5694520Y8692500I0J-50020D01*
G01Y8579500D01*
G02X5644500Y8529480I-50020J0D01*
G01X5531500D01*
G02X5518770Y8531130I11J50019D01*
G03X5506020Y8521300I-2589J-9825D01*
G01Y8511700D01*
X5508110Y8510180D01*
G02X5531350Y8483630I-47109J-64682D01*
G03X5544440Y8479200I8934J4843D01*
G02Y8284800I43560J-97200D01*
G03X5531350Y8280370I-4156J-9273D01*
G02X5381950Y8330930I-70351J38130D01*
G01X5382350Y8333480D01*
X5315350Y8400480D01*
X5273150D01*
G02X5183780Y8368920I-66155J45018D01*
G03X5173650Y8352010I-2947J-9724D01*
G01X5319020Y8206650D01*
X5321570Y8207050D01*
G02X5254950Y8140430I12430J-79050D01*
G01X5255350Y8142980D01*
X4907980Y8490350D01*
Y8908650D01*
X5382350Y9383020D01*
G37*
G36*
G01X1986000Y9026460D02*
G02X2078000I46000J117540D01*
G03Y9007540I3703J-9460D01*
G02X2087050Y8776420I-46001J-117538D01*
G03X2084780Y8759640I4434J-9143D01*
G02X2077020Y8633350I-52782J-60140D01*
G01Y8109350D01*
X1856650Y7888980D01*
X1857050Y7886430D01*
G02X1790430Y7953050I-79050J-12430D01*
G01X1792980Y7952650D01*
X1986980Y8146650D01*
Y8633350D01*
G02X1979220Y8759640I45022J66150D01*
G03X1976950Y8776420I-6704J7637D01*
G02X1986000Y9007540I55051J113582D01*
G03Y9026460I-3703J9460D01*
G37*
G36*
G01X7466510Y8598810D02*
G02Y8673190I-100510J37190D01*
G03X7485100Y8672130I9527J3530D01*
G02X7622650Y8681020I71397J-36131D01*
G01X7638650D01*
X8557520Y7762150D01*
X8560070Y7762550D01*
G02X8493450Y7695930I12430J-79050D01*
G01X8493850Y7698480D01*
X7613000Y8579330D01*
G02X7485100Y8599870I-56499J56669D01*
G03X7466510Y8598810I-9063J-4590D01*
G37*
G36*
G01X6866480Y8564750D02*
G02X6976520I55020J71250D01*
G01Y7881750D01*
G02X6866480I-55020J-71250D01*
G01Y8316340D01*
G03X6849360Y8323740I-10158J2D01*
G02X6782070Y8302950I-54857J58260D01*
G01X6779520Y8303350D01*
X6686150Y8209980D01*
X6670150D01*
G02X6660820Y8198650I-66176J44988D01*
G03Y8184350I7212J-7150D01*
G02X6670150Y8173020I-56846J-56318D01*
G01X6686150D01*
X6776020Y8083150D01*
Y6712350D01*
X6495650Y6431980D01*
X6352650D01*
G02X6351180Y6524110I-66151J45021D01*
G01X6352700Y6522020D01*
X6358960D01*
G03X6365110Y6540270I4J10160D01*
G02X6425930Y6683050I48390J63731D01*
G01X6428480Y6682650D01*
X6495480Y6749650D01*
Y7283850D01*
X6336980Y7442350D01*
Y7585350D01*
G02X6427020I45020J66150D01*
G01Y7479650D01*
X6585520Y7321150D01*
Y6712350D01*
X6492150Y6618980D01*
X6492550Y6616430D01*
G02X6490080Y6580780I-79050J-12434D01*
G03X6506990Y6570650I9724J-2947D01*
G01X6685980Y6749650D01*
Y8045850D01*
X6660500Y8071330D01*
G02X6547180Y8184350I-56500J56670D01*
G03Y8198650I-7212J7150D01*
G02X6660500Y8311670I56820J56350D01*
G01X6715850Y8367020D01*
X6715450Y8369570D01*
G02X6849360Y8440260I79050J12433D01*
G03X6866480Y8447660I6962J7398D01*
G01Y8564750D01*
G37*
G36*
G01X9098000Y7565960D02*
G02X9190000I46000J117540D01*
G03Y7547040I3703J-9460D01*
G02X9098000I-46000J-117540D01*
G03Y7565960I-3703J9460D01*
G37*
G36*
G01X6050000Y6994460D02*
G02X6142000I46000J117540D01*
G03Y6975540I3703J-9460D01*
G02X6050000I-46000J-117540D01*
G03Y6994460I-3703J9460D01*
G37*
G36*
G01X5034000Y6295960D02*
G02X5126000I46000J117540D01*
G03Y6277040I3703J-9460D01*
G02X5034000I-46000J-117540D01*
G03Y6295960I-3703J9460D01*
G37*
G36*
G01X3446500D02*
G02X3538500I46000J117540D01*
G03Y6277040I3703J-9460D01*
G02X3446500I-46000J-117540D01*
G03Y6295960I-3703J9460D01*
G37*
G36*
G01X2367000D02*
G02X2459000I46000J117540D01*
G03Y6277040I3703J-9460D01*
G02X2367000I-46000J-117540D01*
G03Y6295960I-3703J9460D01*
G37*
G36*
G01X1605980Y6347350D02*
G02X1696020I45020J66150D01*
G01Y5479650D01*
X2779020Y4396650D01*
X2781570Y4397050D01*
G02X2857730Y4366390I12428J-79049D01*
G03X2875980Y4372540I8090J6146D01*
G01Y4527150D01*
X3032850Y4684020D01*
X3032450Y4686570D01*
G02X3099070Y4619950I79050J12430D01*
G01X3096520Y4620350D01*
X2966020Y4489850D01*
Y4209650D01*
X3033020Y4142650D01*
X3035570Y4143050D01*
G02X2968950Y4076430I12430J-79050D01*
G01X2969350Y4078980D01*
X2875980Y4172350D01*
Y4263460D01*
G03X2857730Y4269610I-10160J4D01*
G02X2714950Y4330430I-63731J48390D01*
G01X2715350Y4332980D01*
X1605980Y5442350D01*
Y6347350D01*
G37*
G36*
G01X2748980Y6283850D02*
G02X2839020I45020J66150D01*
G01Y6098650D01*
G02X2830130Y5961100I-45021J-66153D01*
G03X2831190Y5942510I4590J-9063D01*
G02X2756810I-37190J-100510D01*
G03X2757870Y5961100I-3530J9527D01*
G02X2748980Y6098650I36131J71397D01*
G01Y6283850D01*
G37*
G36*
G01X4526980Y6220350D02*
G02X4617020I45020J66150D01*
G01Y6098650D01*
G02X4608130Y5961100I-45021J-66153D01*
G03X4609190Y5942510I4590J-9063D01*
G02X4534810I-37190J-100510D01*
G03X4535870Y5961100I-3530J9527D01*
G02X4526980Y6098650I36131J71397D01*
G01Y6220350D01*
G37*
G36*
G01X3764980D02*
G02X3855020I45020J66150D01*
G01Y6098650D01*
G02X3846130Y5961100I-45021J-66153D01*
G03X3847190Y5942510I4590J-9063D01*
G02X3772810I-37190J-100510D01*
G03X3773870Y5961100I-3530J9527D01*
G02X3764980Y6098650I36131J71397D01*
G01Y6220350D01*
G37*
G36*
G01X9098000Y4962460D02*
G02X9190000I46000J117540D01*
G03Y4943540I3703J-9460D01*
G02X9098000I-46000J-117540D01*
G03Y4962460I-3703J9460D01*
G37*
G36*
G01X7828000D02*
G02X7920000I46000J117540D01*
G03Y4943540I3703J-9460D01*
G02X7828000I-46000J-117540D01*
G03Y4962460I-3703J9460D01*
G37*
G36*
G01X5031480Y5001350D02*
X5028930Y5000950D01*
G02X5095550Y5067570I-12430J79050D01*
G01X5095150Y5065020D01*
X5188520Y4971650D01*
Y4066650D01*
G02X5098480I-45020J-66150D01*
G01Y4326960D01*
G03X5080230Y4333110I-10160J4D01*
G02X4937450Y4393930I-63731J48390D01*
G01X4937850Y4396480D01*
X4713980Y4620350D01*
X4711430Y4619950D01*
G02X4778050Y4686570I-12430J79050D01*
G01X4777650Y4684020D01*
X5001520Y4460150D01*
X5004070Y4460550D01*
G02X5080230Y4429890I12428J-79049D01*
G03X5098480Y4436040I8090J6146D01*
G01Y4934350D01*
X5031480Y5001350D01*
G37*
G36*
G01X3637000Y1279460D02*
G02X3729000I46000J117540D01*
G03Y1260540I3703J-9460D01*
G02X3637000I-46000J-117540D01*
G03Y1279460I-3703J9460D01*
G37*
G36*
G01X1224000D02*
G02X1316000I46000J117540D01*
G03Y1260540I3703J-9460D01*
G02X1224000I-46000J-117540D01*
G03Y1279460I-3703J9460D01*
G37*
G36*
G01X2467040Y652500D02*
G02Y744500I-117540J46000D01*
G03X2485960I9460J3703D01*
G02Y652500I117540J-46000D01*
G03X2467040I-9460J-3703D01*
G37*
G36*
G01X3776370Y4753390D02*
G02X3878290Y4784300I33626J72610D01*
G01X3876210Y4780890D01*
X4171090Y4486010D01*
G03X4186860Y4487760I7185J7181D01*
G02X4320650Y4490020I67636J-42760D01*
G01X4400150D01*
X5255520Y3634650D01*
X5258070Y3635050D01*
G02X5191450Y3568430I12430J-79050D01*
G01X5191850Y3570980D01*
X4982990Y3779850D01*
G03X4966080Y3769720I-7186J-7183D01*
G02X4877070Y3667450I-76578J-23220D01*
G01X4874520Y3667850D01*
X4844650Y3637980D01*
X4447650D01*
G02X4438320Y3626650I-66176J44988D01*
G03Y3612350I7212J-7150D01*
G02X4447650Y3601020I-56846J-56318D01*
G01X4654150D01*
X4934520Y3320650D01*
Y2965850D01*
X4082650Y2113980D01*
X3156350D01*
X3002980Y2267350D01*
Y2727850D01*
G02X3093020I45020J66150D01*
G01Y2304650D01*
X3193650Y2204020D01*
X4045350D01*
X4287850Y2446510D01*
G03X4277720Y2463420I-7183J7186D01*
G02X4199520Y2481860I-23216J76579D01*
G03X4184140Y2480180I-6975J-7386D01*
G02Y2599820I-88140J59820D01*
G03X4199520Y2598140I8405J5706D01*
G02X4266930Y2619050I54982J-58139D01*
G01X4269480Y2618650D01*
X4287850Y2637010D01*
G03X4277720Y2653920I-7183J7186D01*
G02X4178370Y2705870I-23215J76578D01*
G03X4162370Y2710680I-9665J-3133D01*
G02X4201540Y2808450I-66368J83321D01*
G03X4216430Y2800890I10063J1376D01*
G02X4311000Y2787170I38069J-70388D01*
G01X4336480Y2812650D01*
Y3346850D01*
X4197880Y3485460D01*
G03X4179830Y3490270I-10054J-1457D01*
G02Y3621730I-83830J65730D01*
G03X4197980Y3627990I7992J6269D01*
G01Y3738010D01*
G03X4179830Y3744270I-10158J-9D01*
G02Y3875730I-83830J65730D01*
G03X4197980Y3881990I7992J6269D01*
G01Y3992010D01*
G03X4179830Y3998270I-10158J-9D01*
G02Y4129730I-83830J65730D01*
G03X4197980Y4135990I7992J6269D01*
G01Y4331780D01*
X3776370Y4753390D01*
G37*
G54D27*
X762000Y7620000D03*
Y7874000D03*
Y8128000D03*
X1556000Y7874000D03*
Y7620000D03*
Y8382000D03*
Y8128000D03*
X3302000Y2540000D03*
Y2794000D03*
Y3048000D03*
Y3302000D03*
Y3556000D03*
Y3810000D03*
X4096000Y3048000D03*
Y3302000D03*
X5588000Y2540000D03*
Y2794000D03*
Y3048000D03*
Y3302000D03*
Y3556000D03*
Y3810000D03*
Y7874000D03*
Y8128000D03*
X6382000Y3048000D03*
Y2794000D03*
Y2540000D03*
Y3556000D03*
Y3302000D03*
Y4064000D03*
Y3810000D03*
Y7874000D03*
Y8382000D03*
Y8128000D03*
Y8636000D03*
G54D26*
X635000Y6154000D03*
Y6604000D03*
X1285000Y6154000D03*
Y6604000D03*
X5588000Y1074000D03*
Y1524000D03*
X6238000Y1074000D03*
Y1524000D03*
X8890000Y8440000D03*
Y8890000D03*
X9540000Y8440000D03*
Y8890000D03*
G54D30*
X8636000Y1532000D03*
Y2032000D03*
G54D28*
X2794000Y5080000D03*
X3556000Y7112000D03*
Y7874000D03*
Y8636000D03*
Y9398000D03*
X3810000Y5080000D03*
X4572000D03*
X6858000Y698500D03*
Y1460500D03*
X7112000Y5588000D03*
Y6350000D03*
X7366000Y7366000D03*
Y8128000D03*
Y9398000D03*
X8318500Y8636000D03*
Y9398000D03*
X8636000Y5588000D03*
Y6350000D03*
G54D25*
X500000Y500000D03*
Y9500000D03*
X9500000Y500000D03*
Y9500000D03*
G54D29*
X7366000Y3556000D03*
X7886000D03*
X7626000D03*
%LPD*%
G75*
G36*
G01X4447650Y3510980D02*
X4616850D01*
X4844480Y3283350D01*
Y3102540D01*
G02X4826230Y3096390I-10160J-4D01*
G03X4683450Y3035570I-63731J-48390D01*
G01X4683850Y3033020D01*
X4443860Y2793030D01*
G02X4426520Y2800220I-7181J7186D01*
G01Y3384150D01*
X4348150Y3462510D01*
G02X4358280Y3479420I7183J7186D01*
G03X4447650Y3510980I23215J76578D01*
G37*
G36*
G01X4320650Y4399980D02*
X4362850D01*
X4922850Y3839990D01*
G02X4912720Y3823080I-7183J-7186D01*
G03X4810450Y3734070I-23220J-76578D01*
G01X4810850Y3731520D01*
X4807350Y3728020D01*
X4626540D01*
G02X4620390Y3746270I-4J10160D01*
G03X4505850Y3855020I-48386J63732D01*
G01X4384150D01*
G03X4300410Y3888060I-66151J-45021D01*
G02X4288020Y3897970I-2229J9913D01*
G01Y4372340D01*
G03X4320650Y4399980I-33524J72657D01*
G37*
G54D10*
X500000Y500000D03*
Y9500000D03*
X9500000Y500000D03*
Y9500000D03*
G54D11*
X698500Y4762500D03*
Y5016500D03*
X4572000Y9144000D03*
Y8890000D03*
X5080000Y7366000D03*
Y7112000D03*
G54D20*
X2794000Y5080000D03*
Y5842000D03*
X3556000Y7112000D03*
Y7874000D03*
Y8636000D03*
Y9398000D03*
X3810000Y5080000D03*
Y5842000D03*
X4572000Y5080000D03*
Y5842000D03*
X6858000Y698500D03*
Y1460500D03*
X7112000Y5588000D03*
Y6350000D03*
X7366000Y7366000D03*
Y8128000D03*
Y8636000D03*
Y9398000D03*
X8318500Y8636000D03*
Y9398000D03*
X8636000Y5588000D03*
Y6350000D03*
G54D21*
X7366000Y3556000D03*
X7886000D03*
X7626000D03*
G54D12*
X635000Y6154000D03*
Y6604000D03*
X1285000Y6154000D03*
Y6604000D03*
X5588000Y1074000D03*
Y1524000D03*
X6238000Y1074000D03*
Y1524000D03*
X8890000Y8440000D03*
Y8890000D03*
X9540000Y8440000D03*
Y8890000D03*
G54D22*
X8636000Y1532000D03*
Y2032000D03*
G54D13*
X505000Y7153500D03*
Y8188500D03*
X2857500Y1587500D03*
X3048000Y4191000D03*
X3302000Y1143000D03*
X3683000Y2984500D03*
X4064000Y1587500D03*
X4254500Y3111500D03*
X3746500Y3937000D03*
X4762500Y2540000D03*
X4508500Y2984500D03*
X4889500Y3556000D03*
X4508500Y3302000D03*
Y3175000D03*
X4762500Y4254500D03*
X4381500Y4064000D03*
X5334000Y3937000D03*
X5270500Y4318000D03*
X5524500Y4381500D03*
X5080000Y7747000D03*
Y8064500D03*
X6477000Y8255000D03*
X6921500Y7810500D03*
X7239000Y8255000D03*
X6921500Y8636000D03*
X7620000Y7874000D03*
X8191500Y8445500D03*
X8572500Y9398000D03*
X9588500Y6032500D03*
G54D23*
G01X508000Y7683500D02*
Y7366000D01*
X952500Y6921500D01*
G01X1651000Y6413500D02*
Y5461000D01*
X2794000Y4318000D01*
G01X2032000Y8699500D02*
Y8128000D01*
X1778000Y7874000D01*
G01X1841500Y6413500D02*
Y6159500D01*
X2159000Y5842000D01*
G01X1968500Y7620000D02*
X2921000D01*
X4191000Y8890000D01*
G01X3238500Y8636000D02*
X2413000Y7810500D01*
X1968500D01*
G01X2984500Y1206500D02*
Y762000D01*
X3111500Y635000D01*
G01X4381500Y3556000D02*
X4635500D01*
X4889500Y3302000D01*
Y2984500D01*
X4064000Y2159000D01*
X3175000D01*
X3048000Y2286000D01*
Y2794000D01*
G01X3111500Y4699000D02*
X2921000Y4508500D01*
Y4191000D01*
X3048000Y4064000D01*
G01X2794000Y4699000D02*
X2984500Y4889500D01*
G01X2794000Y6350000D02*
Y6032500D01*
G01X2984500D02*
Y6413500D01*
G01X4762500Y3048000D02*
X4254500Y2540000D01*
G01X3810000Y4826000D02*
Y4783430D01*
X4243000Y4350430D01*
Y3504000D01*
X4381500Y3365500D01*
Y2794000D01*
X4318000Y2730500D01*
X4254500D01*
G01Y4445000D02*
X4381500D01*
X5270500Y3556000D01*
G01X3810000Y6286500D02*
Y6032500D01*
G01X4191000Y8191500D02*
Y7556500D01*
G01X4381500Y3683000D02*
X4826000D01*
X4889500Y3746500D01*
G01X4572000Y3810000D02*
X4318000D01*
G01X4699000Y4699000D02*
X5016500Y4381500D01*
G01X4572000Y6286500D02*
Y6032500D01*
G01X4699000Y7683500D02*
Y7810500D01*
X4889500Y8001000D01*
G01X5143500Y4000500D02*
Y4953000D01*
X5016500Y5080000D01*
G01X5461000Y8445500D02*
Y8890000D01*
X5524500Y8953500D01*
G01X5207000Y8445500D02*
X5334000D01*
X5461000Y8318500D01*
G01Y9398000D02*
X4953000Y8890000D01*
Y8509000D01*
X5334000Y8128000D01*
G01X5842000Y4381500D02*
Y4445000D01*
X6159500Y4762500D01*
G01X6413500Y6604000D02*
X6540500Y6731000D01*
Y7302500D01*
X6382000Y7461000D01*
Y7651500D01*
G01X6604000Y8128000D02*
X6667500D01*
X6731000Y8064500D01*
Y6731000D01*
X6477000Y6477000D01*
X6286500D01*
G01X6604000Y8255000D02*
X6667500D01*
X6794500Y8382000D01*
G01X8699500Y5080000D02*
X8382000Y4762500D01*
Y3556000D01*
X7239000Y2413000D01*
Y2349500D01*
G01X7112000Y8636000D02*
Y7556500D01*
X7175500Y7493000D01*
G01X7874000Y5842000D02*
Y5397500D01*
G01X7556500Y8636000D02*
X7620000D01*
X8572500Y7683500D01*
G01X7620000Y8382000D02*
X7874000Y8128000D01*
G54D14*
X508000Y7683500D03*
X952500Y6921500D03*
X1651000Y6413500D03*
X1778000Y7874000D03*
X2159000Y5842000D03*
X1841500Y6413500D03*
X1968500Y7620000D03*
Y7810500D03*
X2032000Y8699500D03*
X2984500Y1206500D03*
X3048000Y2794000D03*
Y4064000D03*
X2794000Y4318000D03*
Y4699000D03*
X2984500Y4889500D03*
X2794000Y6032500D03*
X2984500D03*
X2794000Y6350000D03*
X2984500Y6413500D03*
X3111500Y635000D03*
Y4699000D03*
X3238500Y8636000D03*
X4254500Y2540000D03*
Y2730500D03*
Y4445000D03*
X3810000Y4826000D03*
Y6032500D03*
Y6286500D03*
X4191000Y7556500D03*
Y8191500D03*
Y8890000D03*
X4762500Y3048000D03*
X4381500Y3556000D03*
Y3683000D03*
X4889500Y3746500D03*
X4572000Y3810000D03*
X4318000D03*
X4699000Y4699000D03*
X4572000Y6032500D03*
Y6286500D03*
X4699000Y7683500D03*
X4889500Y8001000D03*
X5270500Y3556000D03*
X5143500Y4000500D03*
X5016500Y4381500D03*
Y5080000D03*
X5461000Y8445500D03*
X5207000D03*
X5461000Y8318500D03*
X5334000Y8128000D03*
X5461000Y9398000D03*
X5842000Y4381500D03*
X5524500Y8953500D03*
X6159500Y4762500D03*
X6413500Y6604000D03*
X6286500Y6477000D03*
X6382000Y7651500D03*
X6604000Y8128000D03*
Y8255000D03*
X7239000Y2349500D03*
X7175500Y7493000D03*
X6794500Y8382000D03*
X7112000Y8636000D03*
X7874000Y5397500D03*
Y5842000D03*
X7620000Y8382000D03*
X7874000Y8128000D03*
X7556500Y8636000D03*
X8572500Y7683500D03*
X8699500Y5080000D03*
G54D24*
G01X560850Y4762500D02*
X698500D01*
G01X504900Y6154000D02*
X635000D01*
G01X505000Y7153500D02*
X381000Y7277500D01*
Y8064500D01*
X505000Y8188500D01*
G01X1138700Y1397000D02*
X1270000D01*
G01X1016000Y2897650D02*
Y3048000D01*
G01D02*
Y3198350D01*
G01X698500Y4624850D02*
Y4762500D01*
G01D02*
X836150D01*
G01X635000Y6023900D02*
Y6154000D01*
G01X1154900D02*
X1285000D01*
G01X635000D02*
Y6284100D01*
G01Y6154000D02*
X765100D01*
G01X762000Y8270400D02*
Y8382000D01*
G01D02*
Y8493600D01*
G01X650400Y8382000D02*
X762000D01*
G01D02*
X873600D01*
G01X1270000Y1397000D02*
Y1528300D01*
G01Y1397000D02*
X1401300D01*
G01X1285000Y6023900D02*
Y6154000D01*
G01D02*
Y6284100D01*
G01Y6154000D02*
X1415100D01*
G01X2413000Y6028200D02*
Y6159500D01*
G01X2281700D02*
X2413000D01*
G01D02*
X2544300D01*
G01X2032000Y9144000D02*
Y9275300D01*
G01X1900700Y9144000D02*
X2032000D01*
G01D02*
X2163300D01*
G01X2603500Y567200D02*
Y698500D01*
G01D02*
Y829800D01*
G01Y698500D02*
X2734800D01*
G01X2857500Y1587500D02*
X3302000Y1143000D01*
G01X3551700Y1397000D02*
X3683000D01*
G01X3302000Y2428400D02*
Y2540000D01*
G01D02*
Y2651600D01*
G01X3190400Y2540000D02*
X3302000D01*
G01D02*
X3413600D01*
G01X3492500Y6028200D02*
Y6159500D01*
G01X3361200D02*
X3492500D01*
G01D02*
X3623800D01*
G01X4064000Y1587500D02*
Y1841500D01*
X4762500Y2540000D01*
G01X3683000Y1397000D02*
Y1528300D01*
G01Y1397000D02*
X3814300D01*
G01X4572000Y9144000D02*
Y9281650D01*
G01X4434350Y9144000D02*
X4572000D01*
G01D02*
X4709650D01*
G01X5476400Y3048000D02*
X5588000D01*
G01X5476400Y2540000D02*
X5588000D01*
G01X5476400Y3302000D02*
X5588000D01*
G01X5080000Y6028200D02*
Y6159500D01*
G01X4948700D02*
X5080000D01*
G01D02*
X5211300D01*
G01X5080000Y7747000D02*
Y8064500D01*
G01Y7366000D02*
Y7503650D01*
G01X4942350Y7366000D02*
X5080000D01*
G01D02*
X5217650D01*
G01X5588000Y2428400D02*
Y2540000D01*
G01Y2936400D02*
Y3048000D01*
G01D02*
Y3159600D01*
G01Y3048000D02*
X5699600D01*
G01X5588000Y2540000D02*
Y2651600D01*
G01Y2540000D02*
X5699600D01*
G01X5588000Y3190400D02*
Y3302000D01*
G01D02*
Y3413600D01*
G01Y3302000D02*
X5699600D01*
G01X6096000Y7112000D02*
Y7243300D01*
G01X5964700Y7112000D02*
X6096000D01*
G01D02*
X6227300D01*
G01X5588000Y8524400D02*
Y8636000D01*
G01D02*
Y8747600D01*
G01Y8636000D02*
X5699600D01*
G01X6382000Y2682400D02*
Y2794000D01*
G01D02*
Y2905600D01*
G01X6270400Y2794000D02*
X6382000D01*
G01D02*
X6493600D01*
G01X6382000Y2936400D02*
Y3048000D01*
G01D02*
Y3159600D01*
G01X6270400Y3048000D02*
X6382000D01*
G01D02*
X6493600D01*
G01X6382000Y3444400D02*
Y3556000D01*
G01D02*
Y3667600D01*
G01X6270400Y3556000D02*
X6382000D01*
G01D02*
X6493600D01*
G01X6382000Y3698400D02*
Y3810000D01*
G01D02*
Y3921600D01*
G01X6270400Y3810000D02*
X6382000D01*
G01D02*
X6493600D01*
G01X6921500Y7810500D02*
Y8636000D01*
G01X7886000Y3426250D02*
Y3556000D01*
G01D02*
Y3685750D01*
G01X7756250Y3556000D02*
X7886000D01*
G01D02*
X8015750D01*
G01X7874000Y4694700D02*
Y4826000D01*
G01X7742700D02*
X7874000D01*
G01D02*
X8005300D01*
G01X9588500Y6032500D02*
X9461500D01*
X7620000Y7874000D01*
G01X8572500Y9398000D02*
X8699500Y9271000D01*
Y8191500D01*
X8636000Y8128000D01*
X8509000D01*
X8191500Y8445500D01*
G01X9144000Y4694700D02*
Y4826000D01*
G01X9012700D02*
X9144000D01*
G01D02*
X9275300D01*
G01X9144000Y7298200D02*
Y7429500D01*
G01X9012700D02*
X9144000D01*
G01D02*
X9275300D01*
G01X8890000Y8309900D02*
Y8440000D01*
G01D02*
Y8570100D01*
G01Y8440000D02*
X9020100D01*
G01X9540000Y8309900D02*
Y8440000D01*
G01D02*
Y8570100D01*
G01X9409900Y8440000D02*
X9540000D01*
G01D02*
X9670100D01*
G54D15*
X1270000Y1143000D03*
Y1397000D03*
X2349500Y698500D03*
X2413000Y6159500D03*
Y6413500D03*
X2032000Y9144000D03*
Y8890000D03*
X2603500Y698500D03*
X3683000Y1143000D03*
Y1397000D03*
X3492500Y6159500D03*
Y6413500D03*
X5080000Y6159500D03*
Y6413500D03*
X6096000Y7112000D03*
Y6858000D03*
X7874000Y4826000D03*
Y5080000D03*
X9144000Y4826000D03*
Y5080000D03*
Y7429500D03*
Y7683500D03*
G54D16*
X762000Y3048000D03*
G54D17*
X1016000D03*
X1270000D03*
G54D18*
X762000Y7620000D03*
Y7874000D03*
Y8128000D03*
X1556000Y7874000D03*
Y7620000D03*
Y8382000D03*
Y8128000D03*
X3302000Y2540000D03*
Y2794000D03*
Y3048000D03*
Y3302000D03*
Y3556000D03*
Y3810000D03*
X4096000Y3048000D03*
Y2794000D03*
Y2540000D03*
Y3556000D03*
Y3302000D03*
Y4064000D03*
Y3810000D03*
X5588000Y2540000D03*
Y2794000D03*
Y3048000D03*
Y3302000D03*
Y3556000D03*
Y3810000D03*
Y7874000D03*
Y8128000D03*
Y8382000D03*
X6382000Y3048000D03*
Y2794000D03*
Y2540000D03*
Y3556000D03*
Y3302000D03*
Y4064000D03*
Y3810000D03*
Y7874000D03*
Y8382000D03*
Y8128000D03*
Y8636000D03*
G54D19*
X762000Y8382000D03*
X3302000Y4064000D03*
X5588000D03*
Y8636000D03*
M02*
