M48
METRIC,LZ
T01C.3
T02C.4
T03C.7112
T04C.73
T05C.85
T06C.9144
T07C.96
T08C1.
T09C1.0668
T10C1.3716
T11C3.175
;LEADER: 12 
;HEADER: 
;CODE  : ASCII 
;FILE  : KWTRAFFICSIGNAL-1-2.drl for board C:/CADENCE/CADS/allegro/#Taaaacs12648.tmp ... layers TOP and BOTTOM
;T01 Holesize 1. = 0.300000 Tolerance = +0.000000/-0.000000 PLATED MM Quantity = 73 (SuppressedHoles = 3)
;T02 Holesize 2. = 0.400000 Tolerance = +0.000000/-0.000000 PLATED MM Quantity = 29
;T03 Holesize 3. = 0.711200 Tolerance = +0.000000/-0.000000 PLATED MM Quantity = 22
;T04 Holesize 4. = 0.730000 Tolerance = +0.000000/-0.000000 PLATED MM Quantity = 44
;T05 Holesize 5. = 0.850000 Tolerance = +0.000000/-0.000000 PLATED MM Quantity = 2
;T06 Holesize 6. = 0.914400 Tolerance = +0.000000/-0.000000 PLATED MM Quantity = 22
;T07 Holesize 7. = 0.960000 Tolerance = +0.000000/-0.000000 PLATED MM Quantity = 3
;T08 Holesize 8. = 1.000000 Tolerance = +0.000000/-0.000000 PLATED MM Quantity = 12
;T09 Holesize 9. = 1.066800 Tolerance = +0.000000/-0.000000 PLATED MM Quantity = 6
;T10 Holesize 10. = 1.371600 Tolerance = +0.000000/-0.000000 PLATED MM Quantity = 3
%
G90
T01
X031115Y00635
X029845Y012065
X07239Y023495
X047625Y03048
X042545Y027305
Y0254
X03048Y02794
X02794Y04318
Y04699
X029845Y048895
X03048Y04064
X031115Y04699
X0381Y04826
X042545Y04445
X04318Y0381
X043815Y03556
Y03683
X04572Y0381
X04699Y04699
X048895Y037465
X050165Y043815
Y0508
X051435Y040005
X052705Y03556
X05842Y043815
X061595Y047625
X086995Y0508
X07874Y05842
Y053975
X064135Y06604
X062865Y06477
X04572Y062865
Y060325
X0381Y062865
Y060325
X029845Y064135
Y060325
X02794Y0635
Y060325
X02159Y05842
X018415Y064135
X01651
X009525Y069215
X00508Y076835
X01778Y07874
X019685Y0762
Y078105
X02032Y086995
X032385Y08636
X04191Y075565
Y081915
X04699Y076835
X048895Y08001
X05207Y084455
X05334Y08128
X05461Y083185
Y084455
X06382Y076515
X06604Y08128
Y08255
X067945Y08382
X07112Y08636
X071755Y07493
X075565Y08636
X0762Y08382
X07874Y08128
X085725Y076835
X055245Y089535
X05461Y09398
X04191Y0889
T02
X00505Y071535
Y081885
X03048Y04191
X037465Y03937
X03683Y029845
X028575Y015875
X03302Y01143
X04064Y015875
X047625Y0254
X045085Y029845
X042545Y031115
X045085Y03175
Y03302
X048895Y03556
X043815Y04064
X047625Y042545
X05334Y03937
X052705Y04318
X055245Y043815
X0508Y07747
Y080645
X069215Y08636
X07239Y08255
X06477
X069215Y078105
X0762Y07874
X081915Y084455
X085725Y09398
X095885Y060325
T03
X02794Y0508
Y05842
X03556Y09398
R03Y-00762
X0381Y05842
Y0508
X04572Y05842
Y0508
X06858Y014605
Y006985
X07112Y05588
Y0635
X07366Y07366
Y08128
Y08636
Y09398
X083185
Y08636
X08636Y0635
Y05588
T04
X00762Y0762
R03Y00254
X01556
R03Y-00254
X03302Y04064
R06Y-00254
X04096
R06Y00254
X05588Y0254
R06Y00254
Y07874
R03Y00254
X06382
R03Y-00254
Y04064
R06Y-00254
T05
X08636Y01532
Y02032
T06
X0127Y01143
Y01397
X023495Y006985
X026035
X03683Y01143
Y01397
X07874Y04826
Y0508
X09144Y04826
Y0508
Y076835
Y074295
X06096Y07112
Y06858
X0508Y064135
Y061595
X034925Y064135
Y061595
X02413Y064135
Y061595
X02032Y0889
Y09144
T07
X07366Y03556
R02X0026
T08
X00635Y06154
Y06604
X01285
Y06154
X05588Y01524
Y01074
X06238
Y01524
X0889Y0844
Y0889
X0954
Y0844
T09
X006985Y047625
Y050165
X0508Y07112
Y07366
X04572Y0889
Y09144
T10
X00762Y03048
R02X00254
M30
