G04 ================== begin FILE IDENTIFICATION RECORD ==================*
G04 Layout Name:  C:/CADENCE/CADS/allegro/KWTRAFFICSIGNAL.brd*
G04 Film Name:    SSB*
G04 File Format:  Gerber RS274X*
G04 File Origin:  Cadence Allegro 17.2-S038*
G04 Origin Date:  Wed Sep 22 19:56:57 2021*
G04 *
G04 Layer:  REF DES/SILKSCREEN_TOP*
G04 Layer:  PACKAGE GEOMETRY/SILKSCREEN_BOTTOM*
G04 Layer:  BOARD GEOMETRY/SILKSCREEN_BOTTOM*
G04 *
G04 Offset:    (0.0000 0.0000)*
G04 Mirror:    No*
G04 Mode:      Positive*
G04 Rotation:  0*
G04 FullContactRelief:  No*
G04 UndefLineWidth:     0.2000*
G04 ================== end FILE IDENTIFICATION RECORD ====================*
%FSLAX35Y35*MOMM*%
%IR0*IPPOS*OFA0.00000B0.00000*MIA0B0*SFA1.00000B1.00000*%
%ADD10C,.2*%
G75*
%LPD*%
G75*
G54D10*
G01X370770Y2669540D02*
Y2578520D01*
X377440Y2559470D01*
X390770Y2546770D01*
X407440Y2542540D01*
X424110Y2546770D01*
X437440Y2559470D01*
X444110Y2578520D01*
Y2669540D01*
G01X537440Y2542540D02*
Y2669540D01*
X517440Y2644140D01*
G01Y2542540D02*
X557440D01*
G01X400000Y7016930D02*
X413330Y7006350D01*
X428330Y7000000D01*
X441670D01*
X455000Y7006350D01*
X465000Y7016930D01*
X470000Y7031750D01*
X466670Y7046560D01*
X458330Y7059270D01*
X443330Y7067730D01*
X423330Y7071970D01*
X411670Y7080430D01*
X406670Y7095250D01*
X410000Y7110070D01*
X418330Y7120650D01*
X430000Y7127000D01*
X441670D01*
X453330Y7122770D01*
X463330Y7112180D01*
G01X565000Y7000000D02*
Y7127000D01*
X545000Y7101600D01*
G01Y7000000D02*
X585000D01*
G01X350000Y8627000D02*
X390000D01*
G01X370000D02*
Y8500000D01*
G01X350000D02*
X390000D01*
G01X536670Y8616420D02*
X526670Y8622770D01*
X515000Y8627000D01*
X501670D01*
X486660Y8620650D01*
X475000Y8610070D01*
X466670Y8597370D01*
X460000Y8576200D01*
X458330Y8557150D01*
X461670Y8538100D01*
X466670Y8525400D01*
X476670Y8512700D01*
X488330Y8504230D01*
X500000Y8500000D01*
X511670D01*
X523330Y8504230D01*
X533330Y8510580D01*
X541670Y8519050D01*
G01X630000Y8500000D02*
Y8627000D01*
X610000Y8601600D01*
G01Y8500000D02*
X650000D01*
G01X733670Y1615020D02*
X723670Y1621370D01*
X712000Y1625600D01*
X698670D01*
X683660Y1619250D01*
X672000Y1608670D01*
X663670Y1595970D01*
X657000Y1574800D01*
X655330Y1555750D01*
X658670Y1536700D01*
X663670Y1524000D01*
X673670Y1511300D01*
X685330Y1502830D01*
X697000Y1498600D01*
X708670D01*
X720330Y1502830D01*
X730330Y1509180D01*
X738670Y1517650D01*
G01X827000Y1498600D02*
Y1625600D01*
X807000Y1600200D01*
G01Y1498600D02*
X847000D01*
G01X971670Y4616420D02*
X961670Y4622770D01*
X950000Y4627000D01*
X936670D01*
X921660Y4620650D01*
X910000Y4610070D01*
X901670Y4597370D01*
X895000Y4576200D01*
X893330Y4557150D01*
X896670Y4538100D01*
X901670Y4525400D01*
X911670Y4512700D01*
X923330Y4504230D01*
X935000Y4500000D01*
X946670D01*
X958330Y4504230D01*
X968330Y4510580D01*
X976670Y4519050D01*
G01X1028330Y4525400D02*
X1038330Y4510580D01*
X1051660Y4502120D01*
X1066670Y4500000D01*
X1080000Y4502120D01*
X1093330Y4512700D01*
X1101670Y4525400D01*
X1103330Y4538100D01*
X1100000Y4552910D01*
X1088330Y4563500D01*
X1076670Y4567730D01*
X1061670D01*
G01X1076670D02*
X1086670Y4574080D01*
X1095000Y4584660D01*
X1098330Y4597370D01*
X1095000Y4610070D01*
X1086670Y4620650D01*
X1071670Y4627000D01*
X1056670Y4624880D01*
X1041670Y4616420D01*
G01X1803330Y6515100D02*
Y6642100D01*
X1836670D01*
X1850000Y6635750D01*
X1860000Y6627280D01*
X1868330Y6614590D01*
X1875000Y6599760D01*
X1876670Y6578600D01*
X1875000Y6557430D01*
X1868330Y6542610D01*
X1860000Y6529910D01*
X1850000Y6521450D01*
X1836670Y6515100D01*
X1803330D01*
G01X1970000D02*
Y6642100D01*
X1950000Y6616700D01*
G01Y6515100D02*
X1990000D01*
G01X1495670Y9362020D02*
X1485670Y9368370D01*
X1474000Y9372600D01*
X1460670D01*
X1445660Y9366250D01*
X1434000Y9355670D01*
X1425670Y9342970D01*
X1419000Y9321800D01*
X1417330Y9302750D01*
X1420670Y9283700D01*
X1425670Y9271000D01*
X1435670Y9258300D01*
X1447330Y9249830D01*
X1459000Y9245600D01*
X1470670D01*
X1482330Y9249830D01*
X1492330Y9256180D01*
X1500670Y9264650D01*
G01X1552330D02*
X1562330Y9254060D01*
X1574000Y9247720D01*
X1589000Y9245600D01*
X1604000Y9249830D01*
X1615670Y9258300D01*
X1624000Y9273110D01*
X1625670Y9290050D01*
X1622330Y9306980D01*
X1614000Y9317570D01*
X1602330Y9326030D01*
X1590670Y9328150D01*
X1579000Y9326030D01*
X1564000Y9317570D01*
X1569000Y9372600D01*
X1614000D01*
G01X2401670Y1025400D02*
X2410000Y1012700D01*
X2420000Y1004230D01*
X2431670Y1000000D01*
X2445000Y1004230D01*
X2455000Y1012700D01*
X2465000Y1025400D01*
X2468330Y1042330D01*
Y1127000D01*
G01X2565000Y1000000D02*
Y1127000D01*
X2545000Y1101600D01*
G01Y1000000D02*
X2585000D01*
G01X2336670Y5000000D02*
Y5127000D01*
X2378330D01*
X2391670Y5120650D01*
X2400000Y5112180D01*
X2403330Y5095250D01*
X2400000Y5078320D01*
X2390000Y5067730D01*
X2378330Y5061380D01*
X2336670D01*
G01X2378330D02*
X2403330Y5000000D01*
G01X2500000D02*
Y5127000D01*
X2480000Y5101600D01*
G01Y5000000D02*
X2520000D01*
G01X2630000Y5127000D02*
X2616660Y5122770D01*
X2606670Y5112180D01*
X2600000Y5099490D01*
X2595000Y5082550D01*
X2593330Y5063500D01*
X2595000Y5044450D01*
X2600000Y5027510D01*
X2606670Y5014810D01*
X2616660Y5004230D01*
X2630000Y5000000D01*
X2643330Y5004230D01*
X2653330Y5014810D01*
X2660000Y5027510D01*
X2665000Y5044450D01*
X2666670Y5063500D01*
X2665000Y5082550D01*
X2660000Y5099490D01*
X2653330Y5112180D01*
X2643330Y5122770D01*
X2630000Y5127000D01*
G01X2850000Y3627000D02*
X2890000D01*
G01X2870000D02*
Y3500000D01*
G01X2850000D02*
X2890000D01*
G01X3036670Y3616420D02*
X3026670Y3622770D01*
X3015000Y3627000D01*
X3001670D01*
X2986660Y3620650D01*
X2975000Y3610070D01*
X2966670Y3597370D01*
X2960000Y3576200D01*
X2958330Y3557150D01*
X2961670Y3538100D01*
X2966670Y3525400D01*
X2976670Y3512700D01*
X2988330Y3504230D01*
X3000000Y3500000D01*
X3011670D01*
X3023330Y3504230D01*
X3033330Y3510580D01*
X3041670Y3519050D01*
G01X3093330Y3525400D02*
X3103330Y3510580D01*
X3116660Y3502120D01*
X3131670Y3500000D01*
X3145000Y3502120D01*
X3158330Y3512700D01*
X3166670Y3525400D01*
X3168330Y3538100D01*
X3165000Y3552910D01*
X3153330Y3563500D01*
X3141670Y3567730D01*
X3126670D01*
G01X3141670D02*
X3151670Y3574080D01*
X3160000Y3584660D01*
X3163330Y3597370D01*
X3160000Y3610070D01*
X3151670Y3620650D01*
X3136670Y3627000D01*
X3121670Y3624880D01*
X3106670Y3616420D01*
G01X2882830Y6515100D02*
Y6642100D01*
X2916170D01*
X2929500Y6635750D01*
X2939500Y6627280D01*
X2947830Y6614590D01*
X2954500Y6599760D01*
X2956170Y6578600D01*
X2954500Y6557430D01*
X2947830Y6542610D01*
X2939500Y6529910D01*
X2929500Y6521450D01*
X2916170Y6515100D01*
X2882830D01*
G01X3012830Y6540500D02*
X3022830Y6525680D01*
X3036160Y6517220D01*
X3051170Y6515100D01*
X3064500Y6517220D01*
X3077830Y6527800D01*
X3086170Y6540500D01*
X3087830Y6553200D01*
X3084500Y6568010D01*
X3072830Y6578600D01*
X3061170Y6582830D01*
X3046170D01*
G01X3061170D02*
X3071170Y6589180D01*
X3079500Y6599760D01*
X3082830Y6612470D01*
X3079500Y6625170D01*
X3071170Y6635750D01*
X3056170Y6642100D01*
X3041170Y6639980D01*
X3026170Y6631520D01*
G01X3146670Y1615020D02*
X3136670Y1621370D01*
X3125000Y1625600D01*
X3111670D01*
X3096660Y1619250D01*
X3085000Y1608670D01*
X3076670Y1595970D01*
X3070000Y1574800D01*
X3068330Y1555750D01*
X3071670Y1536700D01*
X3076670Y1524000D01*
X3086670Y1511300D01*
X3098330Y1502830D01*
X3110000Y1498600D01*
X3121670D01*
X3133330Y1502830D01*
X3143330Y1509180D01*
X3151670Y1517650D01*
G01X3208330Y1604430D02*
X3218330Y1617130D01*
X3230000Y1623480D01*
X3243330Y1625600D01*
X3260000Y1621370D01*
X3271670Y1610780D01*
X3275000Y1598090D01*
X3273330Y1585380D01*
X3266670Y1574800D01*
X3233330Y1553630D01*
X3218330Y1538820D01*
X3208330Y1517650D01*
X3205000Y1498600D01*
X3275000D01*
G01X3401670Y5000000D02*
Y5127000D01*
X3443330D01*
X3456670Y5120650D01*
X3465000Y5112180D01*
X3468330Y5095250D01*
X3465000Y5078320D01*
X3455000Y5067730D01*
X3443330Y5061380D01*
X3401670D01*
G01X3443330D02*
X3468330Y5000000D01*
G01X3528330Y5025400D02*
X3538330Y5010580D01*
X3551660Y5002120D01*
X3566670Y5000000D01*
X3580000Y5002120D01*
X3593330Y5012700D01*
X3601670Y5025400D01*
X3603330Y5038100D01*
X3600000Y5052910D01*
X3588330Y5063500D01*
X3576670Y5067730D01*
X3561670D01*
G01X3576670D02*
X3586670Y5074080D01*
X3595000Y5084660D01*
X3598330Y5097370D01*
X3595000Y5110070D01*
X3586670Y5120650D01*
X3571670Y5127000D01*
X3556670Y5124880D01*
X3541670Y5116420D01*
G01X3901670Y7000000D02*
Y7127000D01*
X3943330D01*
X3956670Y7120650D01*
X3965000Y7112180D01*
X3968330Y7095250D01*
X3965000Y7078320D01*
X3955000Y7067730D01*
X3943330Y7061380D01*
X3901670D01*
G01X3943330D02*
X3968330Y7000000D01*
G01X4065000D02*
Y7127000D01*
X4045000Y7101600D01*
G01Y7000000D02*
X4085000D01*
G01X3901670Y8500000D02*
Y8627000D01*
X3943330D01*
X3956670Y8620650D01*
X3965000Y8612180D01*
X3968330Y8595250D01*
X3965000Y8578320D01*
X3955000Y8567730D01*
X3943330Y8561380D01*
X3901670D01*
G01X3943330D02*
X3968330Y8500000D01*
G01X4033330Y8605830D02*
X4043330Y8618530D01*
X4055000Y8624880D01*
X4068330Y8627000D01*
X4085000Y8622770D01*
X4096670Y8612180D01*
X4100000Y8599490D01*
X4098330Y8586780D01*
X4091670Y8576200D01*
X4058330Y8555030D01*
X4043330Y8540220D01*
X4033330Y8519050D01*
X4030000Y8500000D01*
X4100000D01*
G01X4900000Y1516930D02*
X4913330Y1506350D01*
X4928330Y1500000D01*
X4941670D01*
X4955000Y1506350D01*
X4965000Y1516930D01*
X4970000Y1531750D01*
X4966670Y1546560D01*
X4958330Y1559270D01*
X4943330Y1567730D01*
X4923330Y1571970D01*
X4911670Y1580430D01*
X4906670Y1595250D01*
X4910000Y1610070D01*
X4918330Y1620650D01*
X4930000Y1627000D01*
X4941670D01*
X4953330Y1622770D01*
X4963330Y1612180D01*
G01X5033330Y1605830D02*
X5043330Y1618530D01*
X5055000Y1624880D01*
X5068330Y1627000D01*
X5085000Y1622770D01*
X5096670Y1612180D01*
X5100000Y1599490D01*
X5098330Y1586780D01*
X5091670Y1576200D01*
X5058330Y1555030D01*
X5043330Y1540220D01*
X5033330Y1519050D01*
X5030000Y1500000D01*
X5100000D01*
G01X4836670Y5500000D02*
Y5627000D01*
X4878330D01*
X4891670Y5620650D01*
X4900000Y5612180D01*
X4903330Y5595250D01*
X4900000Y5578320D01*
X4890000Y5567730D01*
X4878330Y5561380D01*
X4836670D01*
G01X4878330D02*
X4903330Y5500000D01*
G01X5000000D02*
Y5627000D01*
X4980000Y5601600D01*
G01Y5500000D02*
X5020000D01*
G01X5130000D02*
Y5627000D01*
X5110000Y5601600D01*
G01Y5500000D02*
X5150000D01*
G01X4470330Y6515100D02*
Y6642100D01*
X4503670D01*
X4517000Y6635750D01*
X4527000Y6627280D01*
X4535330Y6614590D01*
X4542000Y6599760D01*
X4543670Y6578600D01*
X4542000Y6557430D01*
X4535330Y6542610D01*
X4527000Y6529910D01*
X4517000Y6521450D01*
X4503670Y6515100D01*
X4470330D01*
G01X4633670D02*
X4637000Y6542610D01*
X4642000Y6565900D01*
X4648670Y6587070D01*
X4657000Y6610350D01*
X4670330Y6642100D01*
X4603670D01*
G01X4823070Y9326460D02*
X4813070Y9332810D01*
X4801400Y9337040D01*
X4788070D01*
X4773060Y9330690D01*
X4761400Y9320110D01*
X4753070Y9307410D01*
X4746400Y9286240D01*
X4744730Y9267190D01*
X4748070Y9248140D01*
X4753070Y9235440D01*
X4763070Y9222740D01*
X4774730Y9214270D01*
X4786400Y9210040D01*
X4798070D01*
X4809730Y9214270D01*
X4819730Y9220620D01*
X4828070Y9229090D01*
G01X4936400Y9210040D02*
Y9337040D01*
X4874730Y9246020D01*
X4958070D01*
G01X5331070Y7548460D02*
X5321070Y7554810D01*
X5309400Y7559040D01*
X5296070D01*
X5281060Y7552690D01*
X5269400Y7542110D01*
X5261070Y7529410D01*
X5254400Y7508240D01*
X5252730Y7489190D01*
X5256070Y7470140D01*
X5261070Y7457440D01*
X5271070Y7444740D01*
X5282730Y7436270D01*
X5294400Y7432040D01*
X5306070D01*
X5317730Y7436270D01*
X5327730Y7442620D01*
X5336070Y7451090D01*
G01X5421070Y7432040D02*
X5424400Y7459550D01*
X5429400Y7482840D01*
X5436070Y7504010D01*
X5444400Y7527290D01*
X5457730Y7559040D01*
X5391070D01*
G01X5438000Y8763000D02*
X5478000D01*
G01X5458000D02*
Y8636000D01*
G01X5438000D02*
X5478000D01*
G01X5624670Y8752420D02*
X5614670Y8758770D01*
X5603000Y8763000D01*
X5589670D01*
X5574660Y8756650D01*
X5563000Y8746070D01*
X5554670Y8733370D01*
X5548000Y8712200D01*
X5546330Y8693150D01*
X5549670Y8674100D01*
X5554670Y8661400D01*
X5564670Y8648700D01*
X5576330Y8640230D01*
X5588000Y8636000D01*
X5599670D01*
X5611330Y8640230D01*
X5621330Y8646580D01*
X5629670Y8655050D01*
G01X5686330Y8741830D02*
X5696330Y8754530D01*
X5708000Y8760880D01*
X5721330Y8763000D01*
X5738000Y8758770D01*
X5749670Y8748180D01*
X5753000Y8735490D01*
X5751330Y8722780D01*
X5744670Y8712200D01*
X5711330Y8691030D01*
X5696330Y8676220D01*
X5686330Y8655050D01*
X5683000Y8636000D01*
X5753000D01*
G01X5971670Y6616420D02*
X5961670Y6622770D01*
X5950000Y6627000D01*
X5936670D01*
X5921660Y6620650D01*
X5910000Y6610070D01*
X5901670Y6597370D01*
X5895000Y6576200D01*
X5893330Y6557150D01*
X5896670Y6538100D01*
X5901670Y6525400D01*
X5911670Y6512700D01*
X5923330Y6504230D01*
X5935000Y6500000D01*
X5946670D01*
X5958330Y6504230D01*
X5968330Y6510580D01*
X5976670Y6519050D01*
G01X6033330Y6552910D02*
X6045000Y6567730D01*
X6055000Y6576200D01*
X6068330Y6580430D01*
X6080000Y6576200D01*
X6088330Y6567730D01*
X6095000Y6555030D01*
X6096670Y6540220D01*
X6095000Y6527510D01*
X6088330Y6514810D01*
X6078330Y6504230D01*
X6066670Y6500000D01*
X6053330Y6504230D01*
X6041670Y6516930D01*
X6035000Y6535980D01*
X6033330Y6557150D01*
X6036670Y6584660D01*
X6041670Y6599490D01*
X6050000Y6614300D01*
X6061670Y6624880D01*
X6073330Y6627000D01*
X6085000Y6622770D01*
X6093330Y6612180D01*
G01X6350000Y4627000D02*
X6390000D01*
G01X6370000D02*
Y4500000D01*
G01X6350000D02*
X6390000D01*
G01X6536670Y4616420D02*
X6526670Y4622770D01*
X6515000Y4627000D01*
X6501670D01*
X6486660Y4620650D01*
X6475000Y4610070D01*
X6466670Y4597370D01*
X6460000Y4576200D01*
X6458330Y4557150D01*
X6461670Y4538100D01*
X6466670Y4525400D01*
X6476670Y4512700D01*
X6488330Y4504230D01*
X6500000Y4500000D01*
X6511670D01*
X6523330Y4504230D01*
X6533330Y4510580D01*
X6541670Y4519050D01*
G01X6650000Y4500000D02*
Y4627000D01*
X6588330Y4535980D01*
X6671670D01*
G01X6901670Y9500000D02*
Y9627000D01*
X6943330D01*
X6956670Y9620650D01*
X6965000Y9612180D01*
X6968330Y9595250D01*
X6965000Y9578320D01*
X6955000Y9567730D01*
X6943330Y9561380D01*
X6901670D01*
G01X6943330D02*
X6968330Y9500000D01*
G01X7065000D02*
X7076670Y9502120D01*
X7090000Y9508460D01*
X7098330Y9519050D01*
X7101670Y9533870D01*
X7098330Y9548680D01*
X7088330Y9561380D01*
X7073330Y9567730D01*
X7056670D01*
X7046670Y9571970D01*
X7038330Y9582550D01*
X7035000Y9597370D01*
X7040000Y9612180D01*
X7051660Y9622770D01*
X7065000Y9627000D01*
X7078330Y9622770D01*
X7090000Y9612180D01*
X7095000Y9597370D01*
X7091670Y9582550D01*
X7083330Y9571970D01*
X7073330Y9567730D01*
X7056670D01*
X7041670Y9561380D01*
X7031670Y9548680D01*
X7028330Y9533870D01*
X7031670Y9519050D01*
X7040000Y9508460D01*
X7053330Y9502120D01*
X7065000Y9500000D01*
G01X7401670Y500000D02*
Y627000D01*
X7443330D01*
X7456670Y620650D01*
X7465000Y612180D01*
X7468330Y595250D01*
X7465000Y578320D01*
X7455000Y567730D01*
X7443330Y561380D01*
X7401670D01*
G01X7443330D02*
X7468330Y500000D01*
G01X7528330Y519050D02*
X7538330Y508460D01*
X7550000Y502120D01*
X7565000Y500000D01*
X7580000Y504230D01*
X7591670Y512700D01*
X7600000Y527510D01*
X7601670Y544450D01*
X7598330Y561380D01*
X7590000Y571970D01*
X7578330Y580430D01*
X7566670Y582550D01*
X7555000Y580430D01*
X7540000Y571970D01*
X7545000Y627000D01*
X7590000D01*
G01X7898330Y4500000D02*
Y4627000D01*
X7931670D01*
X7945000Y4620650D01*
X7955000Y4612180D01*
X7963330Y4599490D01*
X7970000Y4584660D01*
X7971670Y4563500D01*
X7970000Y4542330D01*
X7963330Y4527510D01*
X7955000Y4514810D01*
X7945000Y4506350D01*
X7931670Y4500000D01*
X7898330D01*
G01X8085000D02*
Y4627000D01*
X8023330Y4535980D01*
X8106670D01*
G01X7401670Y5500000D02*
Y5627000D01*
X7443330D01*
X7456670Y5620650D01*
X7465000Y5612180D01*
X7468330Y5595250D01*
X7465000Y5578320D01*
X7455000Y5567730D01*
X7443330Y5561380D01*
X7401670D01*
G01X7443330D02*
X7468330Y5500000D01*
G01X7536670Y5514810D02*
X7548330Y5504230D01*
X7561670Y5500000D01*
X7575000Y5504230D01*
X7586670Y5516930D01*
X7595000Y5535980D01*
X7598330Y5555030D01*
Y5578320D01*
X7595000Y5597370D01*
X7586670Y5614300D01*
X7576670Y5622770D01*
X7565000Y5627000D01*
X7551660Y5622770D01*
X7541670Y5614300D01*
X7535000Y5601600D01*
X7531670Y5584660D01*
X7535000Y5569850D01*
X7543330Y5555030D01*
X7553330Y5546560D01*
X7565000Y5544450D01*
X7578330Y5548680D01*
X7588330Y5559270D01*
X7598330Y5578320D01*
G01X7401670Y7000000D02*
Y7127000D01*
X7443330D01*
X7456670Y7120650D01*
X7465000Y7112180D01*
X7468330Y7095250D01*
X7465000Y7078320D01*
X7455000Y7067730D01*
X7443330Y7061380D01*
X7401670D01*
G01X7443330D02*
X7468330Y7000000D01*
G01X7561670D02*
X7565000Y7027510D01*
X7570000Y7050800D01*
X7576670Y7071970D01*
X7585000Y7095250D01*
X7598330Y7127000D01*
X7531670D01*
G01X7901670Y9500000D02*
Y9627000D01*
X7943330D01*
X7956670Y9620650D01*
X7965000Y9612180D01*
X7968330Y9595250D01*
X7965000Y9578320D01*
X7955000Y9567730D01*
X7943330Y9561380D01*
X7901670D01*
G01X7943330D02*
X7968330Y9500000D01*
G01X8033330Y9552910D02*
X8045000Y9567730D01*
X8055000Y9576200D01*
X8068330Y9580430D01*
X8080000Y9576200D01*
X8088330Y9567730D01*
X8095000Y9555030D01*
X8096670Y9540220D01*
X8095000Y9527510D01*
X8088330Y9514810D01*
X8078330Y9504230D01*
X8066670Y9500000D01*
X8053330Y9504230D01*
X8041670Y9516930D01*
X8035000Y9535980D01*
X8033330Y9557150D01*
X8036670Y9584660D01*
X8041670Y9599490D01*
X8050000Y9614300D01*
X8061670Y9624880D01*
X8073330Y9627000D01*
X8085000Y9622770D01*
X8093330Y9612180D01*
G01X8435000Y3500000D02*
X8421660Y3502120D01*
X8410000Y3510580D01*
X8400000Y3523280D01*
X8393330Y3538100D01*
X8390000Y3555030D01*
Y3571970D01*
X8393330Y3588900D01*
X8400000Y3603720D01*
X8410000Y3616420D01*
X8421660Y3624880D01*
X8435000Y3627000D01*
X8448330Y3624880D01*
X8460000Y3616420D01*
X8470000Y3603720D01*
X8476670Y3588900D01*
X8480000Y3571970D01*
Y3555030D01*
X8476670Y3538100D01*
X8470000Y3523280D01*
X8460000Y3510580D01*
X8448330Y3502120D01*
X8435000Y3500000D01*
G01X8448330Y3533870D02*
X8468330Y3500000D01*
G01X8533330Y3605830D02*
X8543330Y3618530D01*
X8555000Y3624880D01*
X8568330Y3627000D01*
X8585000Y3622770D01*
X8596670Y3612180D01*
X8600000Y3599490D01*
X8598330Y3586780D01*
X8591670Y3576200D01*
X8558330Y3555030D01*
X8543330Y3540220D01*
X8533330Y3519050D01*
X8530000Y3500000D01*
X8600000D01*
G01X8534330Y7785100D02*
Y7912100D01*
X8567670D01*
X8581000Y7905750D01*
X8591000Y7897280D01*
X8599330Y7884590D01*
X8606000Y7869760D01*
X8607670Y7848600D01*
X8606000Y7827430D01*
X8599330Y7812610D01*
X8591000Y7799910D01*
X8581000Y7791450D01*
X8567670Y7785100D01*
X8534330D01*
G01X8669330Y7838010D02*
X8681000Y7852830D01*
X8691000Y7861300D01*
X8704330Y7865530D01*
X8716000Y7861300D01*
X8724330Y7852830D01*
X8731000Y7840130D01*
X8732670Y7825320D01*
X8731000Y7812610D01*
X8724330Y7799910D01*
X8714330Y7789330D01*
X8702670Y7785100D01*
X8689330Y7789330D01*
X8677670Y7802030D01*
X8671000Y7821080D01*
X8669330Y7842250D01*
X8672670Y7869760D01*
X8677670Y7884590D01*
X8686000Y7899400D01*
X8697670Y7909980D01*
X8709330Y7912100D01*
X8721000Y7907870D01*
X8729330Y7897280D01*
G01X8901670Y5500000D02*
Y5627000D01*
X8943330D01*
X8956670Y5620650D01*
X8965000Y5612180D01*
X8968330Y5595250D01*
X8965000Y5578320D01*
X8955000Y5567730D01*
X8943330Y5561380D01*
X8901670D01*
G01X8943330D02*
X8968330Y5500000D01*
G01X9085000D02*
Y5627000D01*
X9023330Y5535980D01*
X9106670D01*
G01X8900000Y9016930D02*
X8913330Y9006350D01*
X8928330Y9000000D01*
X8941670D01*
X8955000Y9006350D01*
X8965000Y9016930D01*
X8970000Y9031750D01*
X8966670Y9046560D01*
X8958330Y9059270D01*
X8943330Y9067730D01*
X8923330Y9071970D01*
X8911670Y9080430D01*
X8906670Y9095250D01*
X8910000Y9110070D01*
X8918330Y9120650D01*
X8930000Y9127000D01*
X8941670D01*
X8953330Y9122770D01*
X8963330Y9112180D01*
G01X9028330Y9025400D02*
X9038330Y9010580D01*
X9051660Y9002120D01*
X9066670Y9000000D01*
X9080000Y9002120D01*
X9093330Y9012700D01*
X9101670Y9025400D01*
X9103330Y9038100D01*
X9100000Y9052910D01*
X9088330Y9063500D01*
X9076670Y9067730D01*
X9061670D01*
G01X9076670D02*
X9086670Y9074080D01*
X9095000Y9084660D01*
X9098330Y9097370D01*
X9095000Y9110070D01*
X9086670Y9120650D01*
X9071670Y9127000D01*
X9056670Y9124880D01*
X9041670Y9116420D01*
G01X9336670Y2627000D02*
Y2500000D01*
X9403330D01*
G01X9465000Y2516930D02*
X9478330Y2506350D01*
X9493330Y2500000D01*
X9506670D01*
X9520000Y2506350D01*
X9530000Y2516930D01*
X9535000Y2531750D01*
X9531670Y2546560D01*
X9523330Y2559270D01*
X9508330Y2567730D01*
X9488330Y2571970D01*
X9476670Y2580430D01*
X9471670Y2595250D01*
X9475000Y2610070D01*
X9483330Y2620650D01*
X9495000Y2627000D01*
X9506670D01*
X9518330Y2622770D01*
X9528330Y2612180D01*
G01X9630000Y2500000D02*
Y2627000D01*
X9610000Y2601600D01*
G01Y2500000D02*
X9650000D01*
G01X9398330Y4500000D02*
Y4627000D01*
X9431670D01*
X9445000Y4620650D01*
X9455000Y4612180D01*
X9463330Y4599490D01*
X9470000Y4584660D01*
X9471670Y4563500D01*
X9470000Y4542330D01*
X9463330Y4527510D01*
X9455000Y4514810D01*
X9445000Y4506350D01*
X9431670Y4500000D01*
X9398330D01*
G01X9528330Y4519050D02*
X9538330Y4508460D01*
X9550000Y4502120D01*
X9565000Y4500000D01*
X9580000Y4504230D01*
X9591670Y4512700D01*
X9600000Y4527510D01*
X9601670Y4544450D01*
X9598330Y4561380D01*
X9590000Y4571970D01*
X9578330Y4580430D01*
X9566670Y4582550D01*
X9555000Y4580430D01*
X9540000Y4571970D01*
X9545000Y4627000D01*
X9590000D01*
M02*
