G04 ================== begin FILE IDENTIFICATION RECORD ==================*
G04 Layout Name:  C:/CADENCE/CADS/allegro/KWTRAFFICSIGNAL.brd*
G04 Film Name:    TOP*
G04 File Format:  Gerber RS274X*
G04 File Origin:  Cadence Allegro 17.2-S038*
G04 Origin Date:  Wed Sep 22 19:56:57 2021*
G04 *
G04 Layer:  VIA CLASS/TOP*
G04 Layer:  PIN/TOP*
G04 Layer:  ETCH/TOP*
G04 *
G04 Offset:    (0.0000 0.0000)*
G04 Mirror:    No*
G04 Mode:      Positive*
G04 Rotation:  0*
G04 FullContactRelief:  No*
G04 UndefLineWidth:     0.2000*
G04 ================== end FILE IDENTIFICATION RECORD ====================*
%FSLAX35Y35*MOMM*%
%IR0*IPPOS*OFA0.00000B0.00000*MIA0B0*SFA1.00000B1.00000*%
%ADD14C,.6*%
%ADD13C,.8*%
%ADD10C,.635*%
%ADD18C,1.13*%
%ADD12C,1.5*%
%ADD22C,1.35*%
%ADD20C,1.143*%
%ADD19R,1.13X1.13*%
%ADD15C,1.524*%
%ADD11C,1.651*%
%ADD17C,1.905*%
%ADD21C,1.493*%
%ADD16R,1.905X1.905*%
%ADD23C,.3*%
%ADD24C,.5*%
%ADD27C,2.1304*%
%ADD26C,2.5004*%
%ADD25R,5.0804X5.0804*%
%ADD28C,2.4934*%
G75*
%LPD*%
G75*
G36*
G01X200010Y9799990D02*
X9799990D01*
Y200010D01*
X200010D01*
Y9799990D01*
G37*
%LPC*%
G75*
G36*
G01X5481480Y8579500D02*
Y8692500D01*
G02X5531500Y8742520I50020J0D01*
G01X5644500D01*
G02X5694520Y8692500I0J-50020D01*
G01Y8579500D01*
G02X5644500Y8529480I-50020J0D01*
G01X5531500D01*
G02X5481480Y8579500I0J50020D01*
G37*
G36*
G01X655480Y8325500D02*
Y8438500D01*
G02X705500Y8488520I50020J0D01*
G01X818500D01*
G02X868520Y8438500I0J-50020D01*
G01Y8325500D01*
G02X818500Y8275480I-50020J0D01*
G01X705500D01*
G02X655480Y8325500I0J50020D01*
G37*
G36*
G01X6288670Y1188340D02*
X6605850Y1505520D01*
X6760740D01*
G02Y1415480I97260J-45020D01*
G01X6643150D01*
X6352340Y1124670D01*
X6353630Y1121540D01*
G02X6121370Y1028980I-115628J-47539D01*
G01X5704630D01*
G02Y1119020I-116630J45020D01*
G01X6121370D01*
G02X6285540Y1189630I116633J-45019D01*
G01X6288670Y1188340D01*
G37*
G36*
G01X4199520Y2481860D02*
G03X4184140Y2480180I-6975J-7386D01*
G02Y2599820I-88140J59820D01*
G03X4199520Y2598140I8405J5706D01*
G02Y2481860I54980J-58140D01*
G37*
G36*
G01X7580980Y2523350D02*
Y3439740D01*
G02X7671020I45020J116260D01*
G01Y2560650D01*
X8591040Y1640630D01*
X8594110Y1641800D01*
G02X8526200Y1573890I41890J-109800D01*
G01X8527370Y1576960D01*
X7580980Y2523350D01*
G37*
G36*
G01X4950350Y5034980D02*
X4669260D01*
G02Y5125020I-97260J45020D01*
G01X4950350D01*
G02Y5034980I66150J-45020D01*
G37*
G36*
G01X2748980Y5939260D02*
Y5966350D01*
G02X2839020I45020J66150D01*
G01Y5939260D01*
G02X2748980I-45020J-97260D01*
G37*
G36*
G01X3764980D02*
Y5966350D01*
G02X3855020I45020J66150D01*
G01Y5939260D01*
G02X3764980I-45020J-97260D01*
G37*
G36*
G01X4526980D02*
Y5966350D01*
G02X4617020I45020J66150D01*
G01Y5939260D01*
G02X4526980I-45020J-97260D01*
G37*
G36*
G01X9596980Y5932330D02*
G03X9586990Y5942490I-10159J3D01*
G02X9678060Y6023400I1510J90009D01*
G01X9677810Y6021000D01*
X9707020Y5991790D01*
Y4676210D01*
X8691020Y3660210D01*
Y2135840D01*
G02X8580980I-55020J-103840D01*
G01Y3705790D01*
X9596980Y4721790D01*
Y5932330D01*
G37*
G36*
G01X7347350Y6304980D02*
X7209260D01*
G02Y6395020I-97260J45020D01*
G01X7384650D01*
X7859020Y5920650D01*
X7861570Y5921050D01*
G02X7794950Y5854430I12430J-79050D01*
G01X7795350Y5856980D01*
X7347350Y6304980D01*
G37*
G36*
G01X4145980Y7384650D02*
Y7490350D01*
G02X4236020I45020J66150D01*
G01Y7347350D01*
X3955650Y7066980D01*
X3653260D01*
G02Y7157020I-97260J45020D01*
G01X3918350D01*
X4145980Y7384650D01*
G37*
G36*
G01X1902350Y7574980D02*
X1652540D01*
G02Y7665020I-96540J45020D01*
G01X1902350D01*
G02Y7574980I66150J-45020D01*
G37*
G36*
G01X3727850Y6776020D02*
X4620350Y7668520D01*
X4619950Y7671070D01*
G02X4686570Y7604450I79050J12430D01*
G01X4684020Y7604850D01*
X3765150Y6685980D01*
X3257150D01*
X3041170Y6470000D01*
G02X2939480Y6479650I-56665J-56501D01*
G01Y6495650D01*
X3219850Y6776020D01*
X3727850D01*
G37*
G36*
G01X6336980Y7717650D02*
Y7777460D01*
G02X6427020I45020J96540D01*
G01Y7717650D01*
G02X6336980I-45020J-66150D01*
G37*
G36*
G01X3304650Y8590980D02*
G02Y8681020I-66150J45020D01*
G01X3458740D01*
G02X3653260I97260J-45020D01*
G01X3765150D01*
X4176020Y8270150D01*
X4178570Y8270550D01*
G02X4111950Y8203930I12430J-79050D01*
G01X4112350Y8206480D01*
X3727850Y8590980D01*
X3653260D01*
G02X3458740I-97260J45020D01*
G01X3304650D01*
G37*
G36*
G01X7490350D02*
X7463260D01*
G02Y8681020I-97260J45020D01*
G01X7490350D01*
G02Y8590980I66150J-45020D01*
G37*
G36*
G01X8273480Y8515340D02*
Y8538740D01*
G02X8363520I45020J97260D01*
G01Y8363350D01*
X8083150Y8082980D01*
X7940150D01*
G02X7804120Y8089020I-66150J45022D01*
G03X7788060Y8091250I-8872J-4952D01*
G01X7675020Y7978210D01*
Y7945250D01*
G02X7564980I-55020J-71250D01*
G01Y8023790D01*
X8041710Y8500520D01*
X8120250D01*
G02X8256040Y8508260I71252J-55019D01*
G03X8273480Y8515340I7281J7083D01*
G37*
G36*
G01X8775690Y8839360D02*
G02X9006630Y8935020I114307J50639D01*
G01X9423370D01*
G02Y8844980I116630J-45020D01*
G01X9006630D01*
G02X8839360Y8775690I-116634J45018D01*
G01X8617520Y8553850D01*
Y8045850D01*
X7892650Y7320980D01*
X7463260D01*
G02X7265400Y7402940I-97260J45011D01*
G01X7232000Y7436330D01*
G02X7241650Y7538020I-56501J56665D01*
G01X7257650D01*
X7329060Y7466600D01*
G02X7463260Y7411020I36945J-100601D01*
G01X7855350D01*
X8527480Y8083150D01*
Y8591150D01*
X8775690Y8839360D01*
G37*
G36*
G01X4511500Y9007960D02*
G03Y9026040I-4637J9040D01*
G02X4632500I60500J117960D01*
G03Y9007960I4637J-9040D01*
G02X4447310Y8844980I-60499J-117960D01*
G01X4257150D01*
G02Y8935020I-66150J45020D01*
G01X4447310D01*
G02X4511500Y9007960I124692J-45019D01*
G37*
G36*
G01X5527150Y9352980D02*
G02Y9443020I-66150J45020D01*
G01X7268740D01*
G02Y9352980I97260J-45020D01*
G01X5527150D01*
G37*
G36*
G01X8638650Y7728520D02*
X9026080D01*
G02X9190000Y7565960I117919J-45020D01*
G03Y7547040I3703J-9460D01*
G02X9098000I-46000J-117540D01*
G03Y7565960I-3703J9460D01*
G02X9026080Y7638480I45999J117541D01*
G01X8638650D01*
G02Y7728520I-66150J45020D01*
G37*
G36*
G01X5019500Y7248040D02*
G02X5140500I60500J117960D01*
G03Y7229960I4637J-9040D01*
G02X5201430Y7058810I-60501J-117959D01*
G01X5200040Y7055630D01*
X5924150Y6331520D01*
X6267850D01*
X6319850Y6383510D01*
G03X6309720Y6400420I-7183J7186D01*
G02X6207450Y6489430I-23220J76578D01*
G01X6207850Y6491980D01*
X6050980Y6648850D01*
Y6740080D01*
G02X6050000Y6975540I45019J117919D01*
G03Y6994460I-3703J9460D01*
G02X6142000I46000J117540D01*
G03Y6975540I3703J-9460D01*
G02X6141020Y6740080I-45999J-117541D01*
G01Y6686150D01*
X6271520Y6555650D01*
X6274070Y6556050D01*
G02X6350230Y6525390I12428J-79049D01*
G03X6368480Y6531540I8090J6146D01*
G01Y6537800D01*
X6366390Y6539320D01*
G02X6458520Y6537850I47109J64681D01*
G01Y6394850D01*
X6305150Y6241480D01*
X5886850D01*
X5136370Y6991960D01*
X5133190Y6990570D01*
G02X5019500Y7229960I-53183J121434D01*
G03Y7248040I-4637J9040D01*
G37*
G36*
G01X1018650Y6876480D02*
G02Y6966520I-66150J45020D01*
G01X1352150D01*
X1826520Y6492150D01*
X1829070Y6492550D01*
G02X1762450Y6425930I12430J-79050D01*
G01X1762850Y6428480D01*
X1744490Y6446850D01*
G03X1727580Y6436720I-7186J-7183D01*
G02X1571950Y6425930I-76579J-23217D01*
G01X1572350Y6428480D01*
X1441850Y6558980D01*
X1401630D01*
G02X1168370I-116630J45020D01*
G01X751630D01*
G02Y6649020I-116630J45020D01*
G01X1168370D01*
G02X1401630I116630J-45020D01*
G01X1479150D01*
X1636020Y6492150D01*
X1638570Y6492550D01*
G02X1674220Y6490080I12434J-79050D01*
G03X1684350Y6506990I2947J9724D01*
G01X1314850Y6876480D01*
X1018650D01*
G37*
G36*
G01X4680350Y6458520D02*
X4962080D01*
G02X5126000Y6295960I117919J-45020D01*
G03Y6277040I3703J-9460D01*
G02X5034000I-46000J-117540D01*
G03Y6295960I-3703J9460D01*
G02X4962080Y6368480I45999J117541D01*
G01X4717650D01*
X4650650Y6301480D01*
X4651050Y6298930D01*
G02X4584430Y6365550I-79050J-12430D01*
G01X4586980Y6365150D01*
X4680350Y6458520D01*
G37*
G36*
G01X3446500Y6295960D02*
G02X3610420Y6458520I46001J117540D01*
G01X3701650D01*
X3795020Y6365150D01*
X3797570Y6365550D01*
G02X3730950Y6298930I12430J-79050D01*
G01X3731350Y6301480D01*
X3664350Y6368480D01*
X3610420D01*
G02X3538500Y6295960I-117919J45021D01*
G03Y6277040I3703J-9460D01*
G02X3446500I-46000J-117540D01*
G03Y6295960I-3703J9460D01*
G37*
G36*
G01X2367000D02*
G02X2530920Y6458520I46001J117540D01*
G01X2749150D01*
X2779020Y6428650D01*
X2781570Y6429050D01*
G02X2714950Y6362430I12430J-79050D01*
G01X2715350Y6364980D01*
X2711850Y6368480D01*
X2530920D01*
G02X2459000Y6295960I-117919J45021D01*
G03Y6277040I3703J-9460D01*
G02X2367000I-46000J-117540D01*
G03Y6295960I-3703J9460D01*
G37*
G36*
G01X8733310Y6304980D02*
X8731900Y6302170D01*
G02X8733260Y6395020I-95900J47840D01*
G01X8781650D01*
X9316020Y5860650D01*
Y5188350D01*
X9259210Y5131550D01*
G02X9190000Y4962460I-115211J-51552D01*
G03Y4943540I3703J-9460D01*
G02X9098000I-46000J-117540D01*
G03Y4962460I-3703J9460D01*
G02X9026080Y5034980I45999J117541D01*
G01X8765650D01*
G02Y5125020I-66150J45020D01*
G01X9026080D01*
G02X9195550Y5195210I117917J-45022D01*
G01X9225980Y5225650D01*
Y5823350D01*
X8744350Y6304980D01*
X8733310D01*
G37*
G36*
G01X7828980Y5331350D02*
G02X7919020I45020J66150D01*
G01Y5197920D01*
G02X7920000Y4962460I-45019J-117919D01*
G03Y4943540I3703J-9460D01*
G02X7828000I-46000J-117540D01*
G03Y4962460I-3703J9460D01*
G02X7828980Y5197920I45999J117541D01*
G01Y5331350D01*
G37*
G36*
G01X7320980Y3439740D02*
G02X7411020I45020J116260D01*
G01Y1124350D01*
X6962830Y676160D01*
X6962500Y674730D01*
G02X6930190Y777710I-104500J23772D01*
G01X6933770Y774440D01*
X7320980Y1161650D01*
Y2294960D01*
G03X7302730Y2301110I-10160J4D01*
G02X7226570Y2270450I-63732J48389D01*
G01X7224020Y2270850D01*
X6432150Y1478980D01*
X6354630D01*
G02X6121370I-116630J45020D01*
G01X5704630D01*
G02Y1569020I-116630J45020D01*
G01X6121370D01*
G02X6354630I116630J-45020D01*
G01X6394850D01*
X7160350Y2334520D01*
X7159950Y2337070D01*
G02X7302730Y2397890I79049J12430D01*
G03X7320980Y2404040I8090J6146D01*
G01Y3439740D01*
G37*
G36*
G01X3029350Y9443020D02*
X3458740D01*
G02Y9352980I97260J-45020D01*
G01X3066650D01*
X2558650Y8844980D01*
X2149920D01*
G02X2080160Y8773330I-117918J45022D01*
G01X2077020Y8772030D01*
Y8765700D01*
X2079110Y8764180D01*
G02X2090260Y8644640I-47109J-64684D01*
G03X2097660Y8627520I7398J-6962D01*
G01X2880290D01*
X3529840Y7977970D01*
X3532570Y7978580D01*
G02X3647970Y7929020I23429J-104579D01*
G01X4823840D01*
G03X4831240Y7946140I2J10158D01*
G02X4844480Y8067150I58259J54855D01*
G01Y8146650D01*
X5128350Y8430520D01*
X5127950Y8433070D01*
G02X5194570Y8366450I79050J12430D01*
G01X5192020Y8366850D01*
X4934520Y8109350D01*
Y8067150D01*
G02X4947760Y7946140I-45019J-66155D01*
G03X4955160Y7929020I7398J-6962D01*
G01X5496790D01*
G02X5523720Y7958940I91212J-55018D01*
G03X5517590Y7977200I-6131J8101D01*
G01X5421130D01*
X5348980Y8049350D01*
X5346430Y8048950D01*
G02X5413050Y8115570I-12430J79050D01*
G01X5412650Y8113020D01*
X5458430Y8067240D01*
X5482860D01*
G03X5492020Y8081810I5J10161D01*
G02X5487900Y8164430I95980J46199D01*
G01X5415980Y8236350D01*
Y8252350D01*
G02X5404180Y8374850I45019J66155D01*
G03Y8389150I-7212J7150D01*
G02X5531350Y8483630I56820J56346D01*
G03X5544440Y8479200I8934J4843D01*
G02Y8284800I43560J-97200D01*
G03X5531350Y8280370I-4156J-9273D01*
G02X5517670Y8262000I-70359J38117D01*
G01X5551570Y8228100D01*
G02X5612590Y8024360I36428J-100097D01*
G01X5611190Y8024030D01*
X5584960Y7997790D01*
G03X5591780Y7980450I7182J-7186D01*
G02X5692030Y7851100I-3779J-106452D01*
G01X5691430Y7848380D01*
X5991790Y7548020D01*
X6581210D01*
X6832190Y7799000D01*
X6831940Y7801400D01*
G02X6912400Y7720940I89560J9100D01*
G01X6910000Y7721190D01*
X6626790Y7437980D01*
X5946210D01*
X5613620Y7770570D01*
X5610900Y7769970D01*
G02X5496790Y7818980I-22899J104030D01*
G01X3647970D01*
G02X3451420Y7897430I-91972J55017D01*
G01X3452030Y7900160D01*
X2834710Y8517480D01*
X1628790D01*
X1611020Y8499710D01*
Y8473210D01*
G02X1660030Y8359100I-55020J-91211D01*
G01X1659430Y8356380D01*
X2214020Y7801790D01*
Y7406710D01*
X1864290Y7056980D01*
X1056710D01*
X833980Y7279710D01*
Y7470210D01*
X787620Y7516570D01*
X784900Y7515970D01*
G02X670790Y7564980I-22899J104030D01*
G01X594290D01*
X436020Y7406710D01*
Y3451790D01*
X694540Y3193270D01*
X857250D01*
G02X903960Y3161150I0J-50024D01*
G03X920150Y3157160I9484J3642D01*
G02X1134700Y3131750I95851J-109160D01*
G03X1151300I8300J5857D01*
G02X1214980Y3182450I118701J-83749D01*
G01Y4549210D01*
X822510Y4941680D01*
G03X807010Y4940340I-7187J-7181D01*
G02X759000Y4898540I-108510J76160D01*
G03Y4880460I4637J-9040D01*
G02X638000I-60500J-117960D01*
G03Y4898540I-4637J9040D01*
G02X819110Y5071520I60498J117960D01*
G01X848290D01*
X1325020Y4594790D01*
Y3182450D01*
G02X1405220Y2994900I-55019J-134450D01*
G01X1404000Y2991810D01*
X1419790Y2976020D01*
X1755210D01*
X2390210Y3611020D01*
X3134290D01*
X3179400Y3565910D01*
G03X3196630Y3571610I7180J7188D01*
G02X3201900Y3592430I105374J-15595D01*
G01X2113980Y4680350D01*
Y5775850D01*
G02X2204020I45020J66150D01*
G01Y4717650D01*
X2604640Y4317030D01*
G03X2621980Y4324220I7181J7186D01*
G01Y4590650D01*
X2715350Y4684020D01*
X2714950Y4686570D01*
G02X2817220Y4775580I79050J12432D01*
G03X2827350Y4792490I2947J9724D01*
G01X2748980Y4870850D01*
Y4982740D01*
G02X2839020I45020J97260D01*
G01Y4908150D01*
X2891010Y4856150D01*
G03X2907920Y4866280I7186J7183D01*
G02X2939480Y4955650I76578J23215D01*
G01Y5966350D01*
G02X3029520I45020J66150D01*
G01Y4955650D01*
G02X2961280Y4812920I-45022J-66153D01*
G03X2951150Y4796010I-2947J-9724D01*
G01X3020950Y4726210D01*
G03X3037530Y4729520I7186J7185D01*
G02X3177650Y4744020I73969J-30522D01*
G01X3755460D01*
G03X3761610Y4762270I4J10160D01*
G02X3764980Y4892150I48391J63728D01*
G01Y4982740D01*
G02X3846940Y5180600I45011J97260D01*
G01X3854850Y5188520D01*
X4019150D01*
X4273150Y4934520D01*
X6394850D01*
X7011400Y5551060D01*
G02X7075060Y5487400I100600J36940D01*
G01X6432150Y4844480D01*
X6214040D01*
G03X6207890Y4826230I-4J-10160D01*
G02X6225650Y4807520I-48397J-63724D01*
G01X6902850D01*
X7728350Y5633020D01*
X8538740D01*
G02Y5542980I97260J-45020D01*
G01X7765650D01*
X6940150Y4717480D01*
X6225650D01*
G02X6111110Y4826230I-66154J45018D01*
G03X6104960Y4844480I-6146J8090D01*
G01X4235850D01*
X3981850Y5098480D01*
X3927030D01*
G03X3916900Y5087600I4J-10160D01*
G02X3855020Y4982740I-106901J-7604D01*
G01Y4892150D01*
G02X3858390Y4762270I-45021J-66152D01*
G03X3864540Y4744020I6146J-8090D01*
G01X4632850D01*
G02Y4653980I66150J-45020D01*
G01X3177650D01*
G02X3142020Y4625030I-66154J45018D01*
G03X3138710Y4608450I3875J-9394D01*
G01X3257150Y4490020D01*
X4188350D01*
G02X4324380Y4483980I66150J-45022D01*
G03X4340440Y4481750I8872J4952D01*
G01X4422210Y4563520D01*
X5960290D01*
X6356380Y4167430D01*
X6359100Y4168030D01*
G02X6277970Y4086900I22900J-104030D01*
G01X6278570Y4089620D01*
X5914710Y4453480D01*
X5907660D01*
G03X5900260Y4436360I-2J-10158D01*
G02X5887020Y4315350I-58259J-54855D01*
G01Y4045350D01*
X5688100Y3846430D01*
G02X5491460Y3764980I-100099J-36430D01*
G01X5352650D01*
X5237150Y3649490D01*
G03X5247280Y3632580I7183J-7186D01*
G02X5336650Y3601020I23215J-76578D01*
G01X5491460D01*
G02Y3510980I96540J-45020D01*
G01X5336650D01*
G02X5193920Y3579220I-66153J45022D01*
G03X5177010Y3589350I-9724J2947D01*
G01X4807520Y3219850D01*
Y3114150D01*
G02X4736040Y2972480I-45024J-66151D01*
G03X4722520Y2962890I-3361J-9587D01*
G01Y2453150D01*
X4871020Y2304650D01*
Y1314850D01*
X4146150Y589980D01*
X3177650D01*
G02Y680020I-66150J45020D01*
G01X4108850D01*
X4780980Y1352150D01*
Y2267350D01*
X4644360Y2403970D01*
G03X4627020Y2396780I-7181J-7186D01*
G01Y1882210D01*
X3832790Y1087980D01*
X3796600D01*
G02X3569400I-113600J55020D01*
G01X3373250D01*
G02Y1198020I-71250J55020D01*
G01X3569400D01*
G02X3637000Y1260540I113598J-55021D01*
G03Y1279460I-3703J9460D01*
G02X3729000I46000J117540D01*
G03Y1260540I3703J-9460D01*
G02X3786900Y1214670I-45999J-117540D01*
G03X3802450Y1213260I8362J5769D01*
G01X4516980Y1927790D01*
Y2549210D01*
X4349410Y2716780D01*
G03X4332340Y2711950I-7186J-7182D01*
G02X4178370Y2705870I-77838J18553D01*
G03X4162370Y2710680I-9665J-3133D01*
G02X4192540Y2839020I-66369J83318D01*
G01X4209650D01*
X4239520Y2809150D01*
X4242070Y2809550D01*
G02X4244670Y2809910I12273J-79072D01*
G01X4246410Y2810130D01*
X4251230Y2814960D01*
X4121620Y2944570D01*
X4118900Y2943970D01*
G02X4040980Y3139210I-22900J104029D01*
G01Y3166290D01*
X4060800Y3186110D01*
G03X4057300Y3202760I-7186J7182D01*
G02X3995900Y3338430I38698J99243D01*
G01X3823350Y3510980D01*
X3398540D01*
G02X3317610Y3450630I-96539J45021D01*
G03X3311910Y3433400I1488J-10050D01*
G01X3346560Y3398750D01*
G02Y3205250I-44560J-96750D01*
G01X3311910Y3170600D01*
G03X3317610Y3153370I7188J-7180D01*
G02X3268510Y2946880I-15613J-105370D01*
G01X3265530Y2947870D01*
X3126650Y2808980D01*
X3127050Y2806430D01*
G02X2968340Y2801590I-79050J-12427D01*
G03X2951040Y2809730I-10114J958D01*
G01X2912520Y2771210D01*
Y1658750D01*
G02X2922040Y1650260I-55006J-71262D01*
G03X2939480Y1657340I7281J7083D01*
G01Y2495150D01*
X3201900Y2757570D01*
G02X3265570Y2693900I100100J36430D01*
G01X3029520Y2457850D01*
Y1272650D01*
G02X2939480I-45020J-66150D01*
G01Y1517660D01*
G03X2922040Y1524740I-10159J-3D01*
G02X2802480Y1658750I-64531J62766D01*
G01Y2816790D01*
X3219860Y3234170D01*
G02Y3369830I82140J67830D01*
G01X3088710Y3500980D01*
X2435790D01*
X1800790Y2865980D01*
X1374210D01*
X1326190Y2914000D01*
X1323100Y2912780D01*
G02X1151300Y2964250I-53099J135219D01*
G03X1134700I-8300J-5857D01*
G02X920150Y2938840I-118699J83750D01*
G03X903960Y2934850I-6706J-7632D01*
G02X857250Y2902730I-46710J17904D01*
G01X817020D01*
Y1419790D01*
X1038790Y1198020D01*
X1156400D01*
G02X1224000Y1260540I113598J-55021D01*
G03Y1279460I-3703J9460D01*
G02X1316000I46000J117540D01*
G03Y1260540I3703J-9460D01*
G02X1390210Y1104500I-45998J-117542D01*
G01X1389260Y1101550D01*
X1737290Y753520D01*
X2235900D01*
G02X2467040Y744500I113599J-55019D01*
G03X2485960I9460J3703D01*
G02Y652500I117540J-46000D01*
G03X2467040I-9460J-3703D01*
G02X2235900Y643480I-117541J45999D01*
G01X1691710D01*
X1311450Y1023740D01*
X1308500Y1022790D01*
G02X1156400Y1087980I-38499J120208D01*
G01X993210D01*
X706980Y1374210D01*
Y2902730D01*
X666750D01*
G02X616730Y2952750I0J50020D01*
G01Y3115460D01*
X325980Y3406210D01*
Y7452290D01*
X471250Y7597560D01*
G03X469020Y7613620I-7182J7188D01*
G02X520430Y7762550I38983J69882D01*
G01X522980Y7762150D01*
X658030Y7897190D01*
X658360Y7898590D01*
G02X690270Y7795250I103641J-24594D01*
G01X686680Y7798520D01*
X586650Y7698480D01*
X587050Y7695930D01*
G02X588010Y7684990I-79047J-12449D01*
G03X598160Y7675020I10157J188D01*
G01X670790D01*
G02X866030Y7597100I91211J-55020D01*
G01X865430Y7594380D01*
X944020Y7515790D01*
Y7325290D01*
X1102290Y7167020D01*
X1818710D01*
X2103980Y7452290D01*
Y7756210D01*
X2063410Y7796780D01*
G03X2046340Y7791950I-7186J-7182D01*
G02X1889450Y7822930I-77842J18546D01*
G01X1889850Y7825480D01*
X1868550Y7846790D01*
G03X1851970Y7843480I-7186J-7185D01*
G02X1711850Y7828980I-73969J30522D01*
G01X1652540D01*
G02X1454880Y7907490I-96543J45013D01*
G01X1455870Y7910470D01*
X1283350Y8082980D01*
X858540D01*
G02Y8173020I-96540J45020D01*
G01X1320650D01*
X1519530Y7974130D01*
X1522510Y7975120D01*
G02X1652540Y7919020I33490J-101119D01*
G01X1711850D01*
G02X1747480Y7947970I66154J-45018D01*
G03X1750790Y7964550I-3875J9394D01*
G01X1653730Y8061600D01*
G03X1638670Y8060820I-7178J-7187D01*
G02X1652540Y8173020I-82669J67177D01*
G01X1669650D01*
X1953520Y7889150D01*
X1956070Y7889550D01*
G02X1958670Y7889910I12273J-79072D01*
G01X1960410Y7890130D01*
X1965230Y7894960D01*
X1581620Y8278570D01*
X1578900Y8277970D01*
G02X1500980Y8473210I-22900J104029D01*
G01Y8545290D01*
X1583210Y8627520D01*
X1966340D01*
G03X1973740Y8644640I2J10158D01*
G02X1984890Y8764180I58259J54856D01*
G01X1986980Y8765700D01*
Y8772030D01*
X1983840Y8773330D01*
G02X1986000Y9007540I48160J116671D01*
G03Y9026460I-3703J9460D01*
G02X2078000I46000J117540D01*
G03Y9007540I3703J-9460D01*
G02X2149920Y8935020I-45999J-117541D01*
G01X2521350D01*
X3029350Y9443020D01*
G37*
G36*
G01X8213920Y9374570D02*
G02X8410470Y9453020I104578J23433D01*
G01X8501250D01*
G02Y9342980I71250J-55020D01*
G01X8410470D01*
G02X8295070Y9293420I-91971J55019D01*
G01X8292340Y9294030D01*
X7865520Y8867210D01*
Y8359210D01*
X7706290Y8199980D01*
X7515790D01*
X7469970Y8154160D01*
X7470580Y8151430D01*
G02X7274030Y8072980I-104578J-23433D01*
G01X6962210D01*
X6793210Y8241980D01*
X6736490D01*
X6699850Y8278620D01*
G03X6682680Y8269580I-7180J-7188D01*
G02X6660820Y8198650I-78681J-14585D01*
G03Y8184350I7212J-7150D01*
G02X6591570Y8048950I-56817J-56350D01*
G01X6589020Y8049350D01*
X6559150Y8019480D01*
X6426850D01*
X6418430Y8027900D01*
G02X6336980Y8224540I-36430J100099D01*
G01Y8285460D01*
G02X6459660Y8454900I45016J96539D01*
G01X6461170Y8453300D01*
X6469370D01*
X6589020Y8333650D01*
X6591570Y8334050D01*
G02X6639780Y8326580I12435J-79050D01*
G03X6654480Y8335660I4542J9086D01*
G01Y8380710D01*
X6580180Y8455010D01*
X6485180D01*
X6407620Y8532570D01*
X6404900Y8531970D01*
G02X6326980Y8727210I-22900J104029D01*
G01Y8754290D01*
X6454210Y8881520D01*
X6753790D01*
X6910000Y8725310D01*
X6912400Y8725560D01*
G02X6933320Y8725240I9093J-89560D01*
G03X6941840Y8742500I1335J10074D01*
G01X6775850Y8908480D01*
X5590650D01*
G02Y8998520I-66150J45020D01*
G01X6813150D01*
X7097020Y8714650D01*
X7099570Y8715050D01*
G02X7032950Y8648430I12430J-79050D01*
G01X7033350Y8650980D01*
X7028000Y8656340D01*
G03X7010740Y8647820I-7186J-7185D01*
G02X6831940Y8645100I-89241J-11819D01*
G01X6832190Y8647500D01*
X6708210Y8771480D01*
X6499790D01*
X6455640Y8727330D01*
G03X6455790Y8712820I7187J-7181D01*
G02X6486030Y8613100I-73790J-76822D01*
G01X6485430Y8610380D01*
X6530760Y8565050D01*
X6625760D01*
X6745450Y8445360D01*
X6748930Y8447780D01*
G02X6860650Y8427020I45566J-65779D01*
G01X7553850D01*
G02X7699660Y8374410I66151J-45023D01*
G03X7716960Y8366270I10114J-958D01*
G01X7755480Y8404790D01*
Y8912790D01*
X8214530Y9371840D01*
X8213920Y9374570D01*
G37*
G54D27*
X3302000Y2540000D03*
X5588000D03*
Y2794000D03*
Y3048000D03*
Y3302000D03*
X6382000Y3048000D03*
Y2794000D03*
Y2540000D03*
Y3556000D03*
Y3302000D03*
Y3810000D03*
G54D26*
X635000Y6154000D03*
X1285000D03*
X8890000Y8440000D03*
X9540000D03*
G54D25*
X500000Y500000D03*
Y9500000D03*
X9500000Y500000D03*
Y9500000D03*
G54D28*
X7886000Y3556000D03*
%LPD*%
G75*
G36*
G01X2860150Y4272980D02*
X3029350D01*
X3175970Y4126360D01*
G02X3168780Y4109020I-7186J-7181D01*
G01X3114150D01*
G03X2974030Y4094520I-66151J-45022D01*
G02X2957450Y4091210I-9394J3875D01*
G01X2821210Y4227450D01*
G02X2824520Y4244030I7185J7186D01*
G03X2860150Y4272980I-30524J73968D01*
G37*
G36*
G01X2779020Y4620350D02*
X2781570Y4619950D01*
G03X2870580Y4722220I12432J79050D01*
G02X2887490Y4732350I9724J2947D01*
G01X3219850Y4399980D01*
X4188350D01*
G03X4215520Y4375120I66151J45021D01*
G02X4217750Y4359060I-4952J-8872D01*
G01X4040980Y4182290D01*
Y4155210D01*
G03X4118900Y3959970I55020J-91211D01*
G01X4121620Y3960570D01*
X4209830Y3872360D01*
G02X4202640Y3855020I-7188J-7180D01*
G01X4192540D01*
G03X4066970Y3707510I-96539J-45021D01*
G02X4071390Y3690550I-2767J-9777D01*
G01X4050980Y3670150D01*
Y3652540D01*
G03X4132430Y3455900I45020J-96541D01*
G01X4140850Y3447480D01*
X4297640D01*
G02X4304830Y3430140I2J-10160D01*
G01X4211890Y3337200D01*
G02X4195240Y3340700I-7182J7186D01*
G03X4059570Y3402100I-99243J-38698D01*
G01X3860650Y3601020D01*
X3398540D01*
G03X3265570Y3656100I-96541J-45019D01*
G01X3174030Y3747640D01*
G02X3181220Y3764980I7186J7181D01*
G01X3205460D01*
G03X3206820Y3857820I96540J45016D01*
G01X3205410Y3855020D01*
X3193650D01*
X3075210Y3973450D01*
G02X3078520Y3990030I7185J7186D01*
G03X3114150Y4018980I-30524J73968D01*
G01X3195480D01*
Y4007500D01*
G03X3245500Y3957480I50020J0D01*
G01X3358500D01*
G03X3408520Y4007500I0J50020D01*
G01Y4120500D01*
G03X3358500Y4170520I-50020J0D01*
G01X3259150D01*
X3066650Y4363020D01*
X2860150D01*
G03X2730270Y4366390I-66152J-45021D01*
G02X2712020Y4372540I-8090J6146D01*
G01Y4553350D01*
X2779020Y4620350D01*
G37*
G36*
G01X4573490Y3729990D02*
G03X4616650Y3743600I-1503J80006D01*
G02X4632480Y3735170I5669J-8433D01*
G01Y2613860D01*
G02X4615140Y2606670I-10160J-2D01*
G01X4199430Y3022380D01*
X4200030Y3025100D01*
G03X4169790Y3124820I-104030J22898D01*
G02X4169640Y3139330I7037J7329D01*
G01X4563520Y3533210D01*
Y3719840D01*
G02X4573490Y3729990I10158J-7D01*
G37*
G36*
G01X4467790Y4453480D02*
X4950840D01*
G02X4958240Y4436360I2J-10158D01*
G03X4971480Y4315350I58259J-54855D01*
G01Y4273150D01*
X4586980Y3888650D01*
X4584430Y3889050D01*
G03X4500050Y3845030I-12433J-79050D01*
G02X4483740Y3842290I-9132J4448D01*
G01X4376010Y3950020D01*
X4287790D01*
X4199430Y4038380D01*
X4200030Y4041100D01*
G03X4169790Y4140820I-104030J22898D01*
G02X4169640Y4155330I7037J7329D01*
G01X4467790Y4453480D01*
G37*
G36*
G01X5231470Y4030480D02*
X5481480D01*
Y4007500D01*
G03X5531500Y3957480I50020J0D01*
G01X5644500D01*
G03X5646870Y3957540I-81J50018D01*
G02X5654540Y3940200I486J-10151D01*
G01X5624430Y3910100D01*
G03X5491460Y3855020I-36429J-100099D01*
G01X5315350D01*
X4739860Y3279530D01*
G02X4722520Y3286720I-7181J7186D01*
G01Y3706350D01*
X4796010Y3779850D01*
G02X4812920Y3769720I7186J-7183D01*
G03X4968550Y3758930I76579J-23217D01*
G01X4968150Y3761480D01*
X5128520Y3921850D01*
X5131070Y3921450D01*
G03X5221560Y4018090I12428J79049D01*
G02X5231470Y4030480I9913J2229D01*
G37*
G36*
G01X5082160Y4453480D02*
X5776340D01*
G02X5783740Y4436360I2J-10158D01*
G03X5796980Y4315350I58259J-54855D01*
G01Y4082650D01*
X5711800Y3997460D01*
G02X5694460Y4005130I-7189J7184D01*
G03X5694520Y4007500I-49958J2451D01*
G01Y4120500D01*
G03X5644500Y4170520I-50020J0D01*
G01X5531500D01*
G03X5481690Y4125130I0J-50025D01*
G01X5481270Y4120520D01*
X5009350D01*
X4665490Y3776650D01*
G02X4648580Y3786780I-7186J7183D01*
G03X4651050Y3822430I-76580J23216D01*
G01X4650650Y3824980D01*
X5061520Y4235850D01*
Y4315350D01*
G03X5074760Y4436360I-45019J66155D01*
G02X5082160Y4453480I7398J6962D01*
G37*
G36*
G01X6427020Y8285460D02*
G03X6464670Y8314820I-45014J96544D01*
G02X6479730Y8315600I7882J-6407D01*
G01X6525350Y8269980D01*
X6524950Y8267430D01*
G03X6547180Y8198650I79050J-12433D01*
G02Y8184350I-7212J-7150D01*
G03X6524950Y8115570I56820J-56347D01*
G01X6525350Y8113020D01*
X6521850Y8109520D01*
X6498380D01*
G02X6488250Y8120400I4J10159D01*
G03X6427020Y8224540I-106249J7600D01*
G01Y8285460D01*
G37*
G36*
G01X6878360Y8336980D02*
X7553850D01*
G03X7561740Y8327140I66180J44982D01*
G02X7554340Y8310020I-7398J-6962D01*
G01X7470210D01*
X7392160Y8231970D01*
X7389430Y8232580D01*
G03X7274030Y8183020I-23429J-104579D01*
G01X7007790D01*
X6871170Y8319640D01*
G02X6878360Y8336980I7188J7180D01*
G37*
G54D10*
X500000Y500000D03*
Y9500000D03*
X9500000Y500000D03*
Y9500000D03*
G54D11*
X698500Y4762500D03*
Y5016500D03*
X4572000Y9144000D03*
Y8890000D03*
X5080000Y7366000D03*
Y7112000D03*
G54D20*
X2794000Y5080000D03*
Y5842000D03*
X3556000Y7112000D03*
Y7874000D03*
Y8636000D03*
Y9398000D03*
X3810000Y5080000D03*
Y5842000D03*
X4572000Y5080000D03*
Y5842000D03*
X6858000Y698500D03*
Y1460500D03*
X7112000Y5588000D03*
Y6350000D03*
X7366000Y7366000D03*
Y8128000D03*
Y8636000D03*
Y9398000D03*
X8318500Y8636000D03*
Y9398000D03*
X8636000Y5588000D03*
Y6350000D03*
G54D21*
X7366000Y3556000D03*
X7886000D03*
X7626000D03*
G54D12*
X635000Y6154000D03*
Y6604000D03*
X1285000Y6154000D03*
Y6604000D03*
X5588000Y1074000D03*
Y1524000D03*
X6238000Y1074000D03*
Y1524000D03*
X8890000Y8440000D03*
Y8890000D03*
X9540000Y8440000D03*
Y8890000D03*
G54D22*
X8636000Y1532000D03*
Y2032000D03*
G54D13*
X505000Y7153500D03*
Y8188500D03*
X2857500Y1587500D03*
X3048000Y4191000D03*
X3302000Y1143000D03*
X3683000Y2984500D03*
X4064000Y1587500D03*
X4254500Y3111500D03*
X3746500Y3937000D03*
X4762500Y2540000D03*
X4508500Y2984500D03*
X4889500Y3556000D03*
X4508500Y3302000D03*
Y3175000D03*
X4762500Y4254500D03*
X4381500Y4064000D03*
X5334000Y3937000D03*
X5270500Y4318000D03*
X5524500Y4381500D03*
X5080000Y7747000D03*
Y8064500D03*
X6477000Y8255000D03*
X6921500Y7810500D03*
X7239000Y8255000D03*
X6921500Y8636000D03*
X7620000Y7874000D03*
X8191500Y8445500D03*
X8572500Y9398000D03*
X9588500Y6032500D03*
G54D23*
G01X762000Y7874000D02*
X698500D01*
X508000Y7683500D01*
G01X635000Y6604000D02*
X1285000D01*
G01X952500Y6921500D02*
X1333500D01*
X1841500Y6413500D01*
G01X762000Y8128000D02*
X1302000D01*
X1556000Y7874000D01*
G01X1285000Y6604000D02*
X1460500D01*
X1651000Y6413500D01*
G01X1556000Y7620000D02*
X1968500D01*
G01X1778000Y7874000D02*
X1556000D01*
G01Y8128000D02*
X1651000D01*
X1968500Y7810500D01*
G01X2159000Y5842000D02*
Y4699000D01*
X3302000Y3556000D01*
G01X2413000Y6413500D02*
X2730500D01*
X2794000Y6350000D01*
G01X2032000Y8890000D02*
X2540000D01*
X3048000Y9398000D01*
X3556000D01*
G01X2032000Y8890000D02*
Y8699500D01*
G01X2984500Y1206500D02*
Y2476500D01*
X3302000Y2794000D01*
G01Y3048000D02*
X3048000Y2794000D01*
G01X3302000Y4064000D02*
X3048000D01*
G01X2794000Y4699000D02*
X2667000Y4572000D01*
Y4318000D01*
X3175000Y3810000D01*
X3302000D01*
G01X4254500Y4445000D02*
X3238500D01*
X2794000Y4889500D01*
Y5080000D01*
G01Y4318000D02*
X3048000D01*
X3302000Y4064000D01*
G01X2984500Y4889500D02*
Y6032500D01*
G01X2794000D02*
Y5842000D01*
G01X4699000Y7683500D02*
X3746500Y6731000D01*
X3238500D01*
X2984500Y6477000D01*
Y6413500D01*
G01X3111500Y635000D02*
X4127500D01*
X4826000Y1333500D01*
Y2286000D01*
X4677500Y2434500D01*
Y3725000D01*
X5028000Y4075500D01*
X5576500D01*
X5588000Y4064000D01*
G01X3302000Y3556000D02*
X3842000D01*
X4096000Y3302000D01*
G01X3111500Y4699000D02*
X4699000D01*
G01X3492500Y6413500D02*
X3683000D01*
X3810000Y6286500D01*
G01X3556000Y7112000D02*
X3937000D01*
X4191000Y7366000D01*
Y7556500D01*
G01X3238500Y8636000D02*
X3556000D01*
G01D02*
X3746500D01*
X4191000Y8191500D01*
G01X4254500Y2540000D02*
X4096000D01*
G01Y2794000D02*
X4191000D01*
X4254500Y2730500D01*
G01X4381500Y3556000D02*
X4318000Y3492500D01*
X4159500D01*
X4096000Y3556000D01*
G01X4381500Y3683000D02*
X4127500D01*
X4096000Y3651500D01*
Y3556000D01*
G01X4318000Y3810000D02*
X4096000D01*
G01X3810000Y4826000D02*
Y5080000D01*
G01D02*
X3873500Y5143500D01*
X4000500D01*
X4254500Y4889500D01*
X6413500D01*
X7112000Y5588000D01*
G01X3810000Y6032500D02*
Y5842000D01*
G01X4191000Y8890000D02*
X4572000D01*
G01X4762500Y3048000D02*
Y3238500D01*
X5334000Y3810000D01*
X5588000D01*
G01X4889500Y3746500D02*
X5143500Y4000500D01*
G01X5016500Y4381500D02*
Y4254500D01*
X4572000Y3810000D01*
G01X5016500Y5080000D02*
X4572000D01*
G01Y6032500D02*
Y5842000D01*
G01Y6286500D02*
X4699000Y6413500D01*
X5080000D01*
G01X4889500Y8001000D02*
Y8128000D01*
X5207000Y8445500D01*
G01X5270500Y3556000D02*
X5588000D01*
G01X5080000Y7112000D02*
X5905500Y6286500D01*
X6286500D01*
X6413500Y6413500D01*
Y6604000D01*
G01X5588000Y8382000D02*
X5524500D01*
X5461000Y8445500D01*
G01Y8318500D02*
Y8255000D01*
X5588000Y8128000D01*
G01D02*
Y8064500D01*
X5545720Y8022220D01*
X5439780D01*
X5334000Y8128000D01*
G01X5461000Y9398000D02*
X7366000D01*
G01X5588000Y1074000D02*
X6238000D01*
G01X5588000Y1524000D02*
X6238000D01*
G01X5588000Y3810000D02*
X5842000Y4064000D01*
Y4381500D01*
G01X6096000Y6858000D02*
Y6667500D01*
X6286500Y6477000D01*
G01X5524500Y8953500D02*
X6794500D01*
X7112000Y8636000D01*
G01X6858000Y1460500D02*
X6624500D01*
X6238000Y1074000D01*
G01Y1524000D02*
X6413500D01*
X7239000Y2349500D01*
G01X8636000Y5588000D02*
X7747000D01*
X6921500Y4762500D01*
X6159500D01*
G01X6382000Y7874000D02*
Y7651500D01*
G01Y8382000D02*
Y8128000D01*
G01Y8382000D02*
X6408280Y8408280D01*
X6450720D01*
X6604000Y8255000D01*
G01Y8128000D02*
X6540500Y8064500D01*
X6445500D01*
X6382000Y8128000D01*
G01X7366000Y3556000D02*
Y1143000D01*
X6921500Y698500D01*
X6858000D01*
G01X7112000Y6350000D02*
X7366000D01*
X7874000Y5842000D01*
G01X7175500Y7493000D02*
X7239000D01*
X7366000Y7366000D01*
G01X6794500Y8382000D02*
X7620000D01*
G01X7626000Y3556000D02*
Y2542000D01*
X8636000Y1532000D01*
G01X7874000Y5397500D02*
Y5080000D01*
G01X8890000Y8890000D02*
X8572500Y8572500D01*
Y8064500D01*
X7874000Y7366000D01*
X7366000D01*
G01X8318500Y8636000D02*
Y8382000D01*
X8064500Y8128000D01*
X7874000D01*
G01X7366000Y8636000D02*
X7556500D01*
G01X8699500Y5080000D02*
X9144000D01*
G01X8636000Y6350000D02*
X8763000D01*
X9271000Y5842000D01*
Y5207000D01*
X9144000Y5080000D01*
G01X8572500Y7683500D02*
X9144000D01*
G01X8890000Y8890000D02*
X9540000D01*
G54D14*
X508000Y7683500D03*
X952500Y6921500D03*
X1651000Y6413500D03*
X1778000Y7874000D03*
X2159000Y5842000D03*
X1841500Y6413500D03*
X1968500Y7620000D03*
Y7810500D03*
X2032000Y8699500D03*
X2984500Y1206500D03*
X3048000Y2794000D03*
Y4064000D03*
X2794000Y4318000D03*
Y4699000D03*
X2984500Y4889500D03*
X2794000Y6032500D03*
X2984500D03*
X2794000Y6350000D03*
X2984500Y6413500D03*
X3111500Y635000D03*
Y4699000D03*
X3238500Y8636000D03*
X4254500Y2540000D03*
Y2730500D03*
Y4445000D03*
X3810000Y4826000D03*
Y6032500D03*
Y6286500D03*
X4191000Y7556500D03*
Y8191500D03*
Y8890000D03*
X4762500Y3048000D03*
X4381500Y3556000D03*
Y3683000D03*
X4889500Y3746500D03*
X4572000Y3810000D03*
X4318000D03*
X4699000Y4699000D03*
X4572000Y6032500D03*
Y6286500D03*
X4699000Y7683500D03*
X4889500Y8001000D03*
X5270500Y3556000D03*
X5143500Y4000500D03*
X5016500Y4381500D03*
Y5080000D03*
X5461000Y8445500D03*
X5207000D03*
X5461000Y8318500D03*
X5334000Y8128000D03*
X5461000Y9398000D03*
X5842000Y4381500D03*
X5524500Y8953500D03*
X6159500Y4762500D03*
X6413500Y6604000D03*
X6286500Y6477000D03*
X6382000Y7651500D03*
X6604000Y8128000D03*
Y8255000D03*
X7239000Y2349500D03*
X7175500Y7493000D03*
X6794500Y8382000D03*
X7112000Y8636000D03*
X7874000Y5397500D03*
Y5842000D03*
X7620000Y8382000D03*
X7874000Y8128000D03*
X7556500Y8636000D03*
X8572500Y7683500D03*
X8699500Y5080000D03*
G54D24*
G01X762000Y7620000D02*
X571500D01*
X381000Y7429500D01*
Y3429000D01*
X762000Y3048000D01*
G01X508000Y4889500D02*
X635000Y4762500D01*
X698500D01*
G01X508000Y6027000D02*
Y4889500D01*
G01X635000Y6154000D02*
X508000Y6027000D01*
G01X505000Y7153500D02*
Y6226000D01*
G01D02*
X577000Y6154000D01*
X635000D01*
G01X505000Y8188500D02*
X568500D01*
G01D02*
X762000Y8382000D01*
G01Y3048000D02*
Y1397000D01*
X1016000Y1143000D01*
X1270000D01*
G01X1016000Y3048000D02*
Y1651000D01*
G01D02*
X1270000Y1397000D01*
G01X1138700D02*
X1270000D01*
G01X880040Y3198250D02*
X1016000Y3062290D01*
Y3048000D01*
G01X698500Y4762500D02*
Y3365500D01*
G01D02*
X865750Y3198250D01*
X880040D01*
G01X1270000Y3048000D02*
Y4572000D01*
X825500Y5016500D01*
X698500D01*
G01X635000Y6023900D02*
Y6154000D01*
G01D02*
X1285000D01*
G01X635000D02*
Y6284100D01*
G01X762000Y7620000D02*
X889000Y7493000D01*
Y7302500D01*
X1079500Y7112000D01*
X1841500D01*
X2159000Y7429500D01*
Y7779000D01*
X1556000Y8382000D01*
G01X762000Y8699500D02*
Y8382000D01*
G01Y8270400D02*
Y8382000D01*
G01X650400D02*
X762000D01*
G01D02*
X873600D01*
G01X2032000Y9144000D02*
X1968500Y9080500D01*
X1143000D01*
G01D02*
X762000Y8699500D01*
G01X2349500Y698500D02*
X1714500D01*
X1270000Y1143000D01*
G01Y1397000D02*
X1905000D01*
G01X1270000D02*
Y1528300D01*
G01Y3048000D02*
X1397000Y2921000D01*
X1778000D01*
X2413000Y3556000D01*
X3111500D01*
X3302000Y3365500D01*
Y3302000D01*
G01X1285000Y6023900D02*
Y6154000D01*
G01D02*
X2407500D01*
X2413000Y6159500D01*
G01X1285000Y6154000D02*
Y6284100D01*
G01X3556000Y7874000D02*
X2857500Y8572500D01*
X1606000D01*
X1556000Y8522500D01*
Y8382000D01*
G01X1905000Y1397000D02*
X2603500Y698500D01*
G01X2413000Y6028200D02*
Y6159500D01*
G01D02*
X3492500D01*
G01X2281700D02*
X2413000D01*
G01X2032000Y9144000D02*
Y9275300D01*
G01X1900700Y9144000D02*
X2032000D01*
G01D02*
X2163300D01*
G01X2603500Y567200D02*
Y698500D01*
G01X2857500D02*
X2603500D01*
G01X3365500Y1397000D02*
X3048000Y1079500D01*
Y889000D01*
X2857500Y698500D01*
G01X2603500D02*
Y829800D01*
G01X3302000Y3302000D02*
Y3238500D01*
X2857500Y2794000D01*
Y1587500D01*
G01X3302000Y1143000D02*
X3683000D01*
G01Y1397000D02*
X3365500D01*
G01X3302000Y2159000D02*
X3683000Y1778000D01*
G01X3302000Y2540000D02*
Y2159000D01*
G01Y2540000D02*
Y2651600D01*
G01X3190400Y2540000D02*
X3302000D01*
G01D02*
X3413600D01*
G01X3492500Y6159500D02*
X5080000D01*
G01X5588000Y7874000D02*
X3556000D01*
G01X4096000Y3048000D02*
X4572000Y2572000D01*
Y1905000D01*
X3810000Y1143000D01*
X3683000D01*
G01Y1397000D02*
X3873500D01*
G01X3683000Y1778000D02*
Y1397000D01*
G01X3873500D02*
X4064000Y1587500D01*
G01X4096000Y3048000D02*
Y3143500D01*
X4508500Y3556000D01*
Y3739720D01*
X4353220Y3895000D01*
X4265000D01*
X4096000Y4064000D01*
G01D02*
Y4159500D01*
X4445000Y4508500D01*
X5937500D01*
X6382000Y4064000D01*
G01X4762500Y2540000D02*
Y2794000D01*
X5362140Y3393640D01*
X5496360D01*
G01X4572000Y9144000D02*
X5080000D01*
G01X4572000D02*
Y9281650D01*
G01X4434350Y9144000D02*
X4572000D01*
G01X5588000Y2540000D02*
X5461000D01*
G01D02*
X5369360Y2631640D01*
Y2829360D01*
G01D02*
X5588000Y3048000D01*
G01X5476400D02*
X5588000D01*
G01X5496360Y3393640D02*
X5588000Y3302000D01*
G01X5476400D02*
X5588000D01*
G01X6477000Y6159500D02*
X5080000D01*
G01Y7366000D02*
X5143500Y7302500D01*
X5905500D01*
G01X5080000Y7366000D02*
Y7747000D01*
G01X4942350Y7366000D02*
X5080000D01*
G01D02*
X5217650D01*
G01X5080000Y8064500D02*
Y8191500D01*
G01D02*
X5524500Y8636000D01*
X5588000D01*
G01X5080000Y9144000D02*
X5588000Y8636000D01*
G01X6032500Y2095500D02*
X5588000Y2540000D01*
G01X6632140Y2543860D02*
Y2314140D01*
X6413500Y2095500D01*
X6032500D01*
G01X5588000Y2428400D02*
Y2540000D01*
G01Y3302000D02*
Y3048000D01*
G01Y2936400D02*
Y3048000D01*
G01D02*
X5699600D01*
G01X5588000Y2540000D02*
Y2651600D01*
G01Y2540000D02*
X5699600D01*
G01X5588000Y3302000D02*
Y3413600D01*
G01Y3302000D02*
X5699600D01*
G01X6096000Y7112000D02*
X6667500Y6540500D01*
G01X5905500Y7302500D02*
X6096000Y7112000D01*
G01D02*
Y7243300D01*
G01X5964700Y7112000D02*
X6096000D01*
G01D02*
X6227300D01*
G01X5588000Y7874000D02*
X5969000Y7493000D01*
X6604000D01*
X6921500Y7810500D01*
G01X5588000Y8524400D02*
Y8636000D01*
G01D02*
Y8747600D01*
G01Y8636000D02*
X5699600D01*
G01X6382000Y3048000D02*
Y2794000D01*
G01Y3048000D02*
X6540500Y3206500D01*
G01X6382000Y2794000D02*
X6632140Y2543860D01*
G01X6382000Y2682400D02*
Y2794000D01*
G01X6270400D02*
X6382000D01*
G01D02*
X6493600D01*
G01X6382000Y3048000D02*
Y3159600D01*
G01X6270400Y3048000D02*
X6382000D01*
G01D02*
X6493600D01*
G01X6382000Y3810000D02*
Y3556000D01*
G01X6540500Y3206500D02*
Y3429000D01*
G01D02*
X6413500Y3556000D01*
X6382000D01*
G01Y3444400D02*
Y3556000D01*
G01X6270400D02*
X6382000D01*
G01X7441500Y4000500D02*
X6540500D01*
G01D02*
X6382000Y3842000D01*
Y3810000D01*
G01X6270400D02*
X6382000D01*
G01D02*
X6493600D01*
G01X6667500Y6540500D02*
Y6350000D01*
X6477000Y6159500D01*
G01X7366000Y8128000D02*
X6985000D01*
X6816000Y8297000D01*
X6759280D01*
X6709500Y8346780D01*
Y8403500D01*
X6602970Y8510030D01*
X6507970D01*
X6382000Y8636000D01*
G01X6921500D02*
X6731000Y8826500D01*
X6477000D01*
X6382000Y8731500D01*
Y8636000D01*
G01X7874000Y3568000D02*
X7886000Y3556000D01*
G01X7874000Y3568000D02*
X7441500Y4000500D01*
G01X8076500Y3568000D02*
X7874000D01*
G01X7886000Y3426250D02*
Y3556000D01*
G01D02*
Y3685750D01*
G01X7756250Y3556000D02*
X7886000D01*
G01D02*
X8015750D01*
G01X7874000Y4826000D02*
X8001000Y4953000D01*
G01X7874000Y4826000D02*
Y4572000D01*
G01D02*
X8191500Y4254500D01*
Y3683000D01*
X8076500Y3568000D01*
G01X7742700Y4826000D02*
X7874000D01*
G01D02*
X8005300D01*
G01X8191500Y8445500D02*
X8064500D01*
X7620000Y8001000D01*
Y7874000D01*
G01X7366000Y8128000D02*
X7493000Y8255000D01*
X7683500D01*
X7810500Y8382000D01*
Y8890000D01*
X8318500Y9398000D01*
G01X8001000Y4953000D02*
X8763000D01*
X8890000Y4826000D01*
G01X8572500Y9398000D02*
X8318500D01*
G01X9588500Y6032500D02*
X9652000Y5969000D01*
Y4699000D01*
X8636000Y3683000D01*
Y2032000D01*
G01X9144000Y4826000D02*
X9461500Y5143500D01*
G01X8890000Y4826000D02*
X9144000D01*
G01Y4694700D02*
Y4826000D01*
G01D02*
X9275300D01*
G01X9461500Y5143500D02*
Y6858000D01*
X9144000Y7175500D01*
G01D02*
Y7429500D01*
G01D02*
X9271000Y7556500D01*
G01X9012700Y7429500D02*
X9144000D01*
G01D02*
X9275300D01*
G01X8890000Y8440000D02*
X9540000D01*
G01X9271000Y7556500D02*
X9398000D01*
X9525000Y7683500D01*
Y7951000D01*
X9411500Y8064500D01*
X8953500D01*
X8832860Y8185140D01*
G01D02*
Y8382860D01*
X8890000Y8440000D01*
G01Y8309900D02*
Y8440000D01*
G01D02*
Y8570100D01*
G01X8759900Y8440000D02*
X8890000D01*
G01X9540000Y8309900D02*
Y8440000D01*
G01D02*
Y8570100D01*
G01Y8440000D02*
X9670100D01*
G54D15*
X1270000Y1143000D03*
Y1397000D03*
X2349500Y698500D03*
X2413000Y6159500D03*
Y6413500D03*
X2032000Y9144000D03*
Y8890000D03*
X2603500Y698500D03*
X3683000Y1143000D03*
Y1397000D03*
X3492500Y6159500D03*
Y6413500D03*
X5080000Y6159500D03*
Y6413500D03*
X6096000Y7112000D03*
Y6858000D03*
X7874000Y4826000D03*
Y5080000D03*
X9144000Y4826000D03*
Y5080000D03*
Y7429500D03*
Y7683500D03*
G54D16*
X762000Y3048000D03*
G54D17*
X1016000D03*
X1270000D03*
G54D18*
X762000Y7620000D03*
Y7874000D03*
Y8128000D03*
X1556000Y7874000D03*
Y7620000D03*
Y8382000D03*
Y8128000D03*
X3302000Y2540000D03*
Y2794000D03*
Y3048000D03*
Y3302000D03*
Y3556000D03*
Y3810000D03*
X4096000Y3048000D03*
Y2794000D03*
Y2540000D03*
Y3556000D03*
Y3302000D03*
Y4064000D03*
Y3810000D03*
X5588000Y2540000D03*
Y2794000D03*
Y3048000D03*
Y3302000D03*
Y3556000D03*
Y3810000D03*
Y7874000D03*
Y8128000D03*
Y8382000D03*
X6382000Y3048000D03*
Y2794000D03*
Y2540000D03*
Y3556000D03*
Y3302000D03*
Y4064000D03*
Y3810000D03*
Y7874000D03*
Y8382000D03*
Y8128000D03*
Y8636000D03*
G54D19*
X762000Y8382000D03*
X3302000Y4064000D03*
X5588000D03*
Y8636000D03*
M02*
